<?xml version="1.0" encoding="UTF-8" standalone="no"?>
<svg
   xmlns:dc="http://purl.org/dc/elements/1.1/"
   xmlns:cc="http://creativecommons.org/ns#"
   xmlns:rdf="http://www.w3.org/1999/02/22-rdf-syntax-ns#"
   xmlns:svg="http://www.w3.org/2000/svg"
   xmlns="http://www.w3.org/2000/svg"
   xmlns:sodipodi="http://sodipodi.sourceforge.net/DTD/sodipodi-0.dtd"
   xmlns:inkscape="http://www.inkscape.org/namespaces/inkscape"
   width="40.639725mm"
   height="128.50069mm"
   viewBox="0 0 40.639725 128.50069"
   version="1.1"
   id="svg22336"
   inkscape:version="1.0.2 (e86c8708, 2021-01-15)"
   sodipodi:docname="MIDI_CV_MTS_ESP.svg">
  <defs
     id="defs22330">
    <clipPath
       id="clip14">
      <rect
         x="0"
         y="0"
         width="97"
         height="27"
         id="rect1591" />
    </clipPath>
    <clipPath
       id="clip15">
      <path
         inkscape:connector-curvature="0"
         d="m 0.476562,26 h 95.925782 v 0.960938 H 0.476562 Z m 0,0"
         id="path1585" />
    </clipPath>
    <clipPath
       id="clip16">
      <path
         inkscape:connector-curvature="0"
         d="M 0.476562,0.00390625 H 96.402344 V 1 H 0.476562 Z m 0,0"
         id="path1588" />
    </clipPath>
    <clipPath
       id="clip300">
      <rect
         x="0"
         y="0"
         width="23"
         height="26"
         id="rect3738" />
    </clipPath>
    <clipPath
       id="clip301">
      <path
         inkscape:connector-curvature="0"
         d="M 0.167969,0.878906 H 22.84375 V 25.621094 H 0.167969 Z m 0,0"
         id="path3735" />
    </clipPath>
    <clipPath
       id="clip302">
      <rect
         x="0"
         y="0"
         width="17"
         height="16"
         id="rect3754" />
    </clipPath>
    <clipPath
       id="clip303">
      <path
         inkscape:connector-curvature="0"
         d="M 0.382812,0.117188 H 16.628906 V 15.214844 H 0.382812 Z m 0,0"
         id="path3751" />
    </clipPath>
    <clipPath
       id="clip304">
      <rect
         x="0"
         y="0"
         width="23"
         height="26"
         id="rect3770" />
    </clipPath>
    <clipPath
       id="clip305">
      <path
         inkscape:connector-curvature="0"
         d="M 0.0507812,0.878906 H 22.726562 V 25.621094 H 0.0507812 Z m 0,0"
         id="path3767" />
    </clipPath>
    <clipPath
       id="clip306">
      <rect
         x="0"
         y="0"
         width="17"
         height="16"
         id="rect3786" />
    </clipPath>
    <clipPath
       id="clip307">
      <path
         inkscape:connector-curvature="0"
         d="M 0.265625,0.117188 H 16.511719 V 15.214844 H 0.265625 Z m 0,0"
         id="path3783" />
    </clipPath>
    <clipPath
       id="clip308">
      <rect
         x="0"
         y="0"
         width="24"
         height="26"
         id="rect3802" />
    </clipPath>
    <clipPath
       id="clip309">
      <path
         inkscape:connector-curvature="0"
         d="M 0.929688,0.878906 H 23.609375 V 25.621094 H 0.929688 Z m 0,0"
         id="path3799" />
    </clipPath>
    <clipPath
       id="clip310">
      <rect
         x="0"
         y="0"
         width="17"
         height="16"
         id="rect3818" />
    </clipPath>
    <clipPath
       id="clip311">
      <path
         inkscape:connector-curvature="0"
         d="m 0.144531,0.117188 h 16.25 v 15.097656 h -16.25 z m 0,0"
         id="path3815" />
    </clipPath>
    <clipPath
       id="clip313">
      <rect
         x="0"
         y="0"
         width="23"
         height="26"
         id="rect3837" />
    </clipPath>
    <clipPath
       id="clip314">
      <path
         inkscape:connector-curvature="0"
         d="M 0.167969,0.527344 H 22.84375 V 25.265625 H 0.167969 Z m 0,0"
         id="path3834" />
    </clipPath>
    <clipPath
       id="clip315">
      <rect
         x="0"
         y="0"
         width="17"
         height="16"
         id="rect3853" />
    </clipPath>
    <clipPath
       id="clip316">
      <path
         inkscape:connector-curvature="0"
         d="M 0.382812,0.761719 H 16.628906 V 15.859375 H 0.382812 Z m 0,0"
         id="path3850" />
    </clipPath>
    <clipPath
       id="clip318">
      <rect
         x="0"
         y="0"
         width="24"
         height="26"
         id="rect3872" />
    </clipPath>
    <clipPath
       id="clip319">
      <path
         inkscape:connector-curvature="0"
         d="M 0.929688,0.527344 H 23.609375 V 25.265625 H 0.929688 Z m 0,0"
         id="path3869" />
    </clipPath>
    <clipPath
       id="clip320">
      <rect
         x="0"
         y="0"
         width="17"
         height="16"
         id="rect3888" />
    </clipPath>
    <clipPath
       id="clip321">
      <path
         inkscape:connector-curvature="0"
         d="m 0.144531,0.761719 h 16.25 v 15.097656 h -16.25 z m 0,0"
         id="path3885" />
    </clipPath>
    <clipPath
       id="clip323">
      <rect
         x="0"
         y="0"
         width="23"
         height="26"
         id="rect3907" />
    </clipPath>
    <clipPath
       id="clip324">
      <path
         inkscape:connector-curvature="0"
         d="M 0.0507812,0.527344 H 22.726562 V 25.265625 H 0.0507812 Z m 0,0"
         id="path3904" />
    </clipPath>
    <clipPath
       id="clip325">
      <rect
         x="0"
         y="0"
         width="17"
         height="16"
         id="rect3923" />
    </clipPath>
    <clipPath
       id="clip326">
      <path
         inkscape:connector-curvature="0"
         d="M 0.265625,0.761719 H 16.511719 V 15.859375 H 0.265625 Z m 0,0"
         id="path3920" />
    </clipPath>
    <clipPath
       id="clip463">
      <rect
         x="0"
         y="0"
         width="23"
         height="25"
         id="rect4987" />
    </clipPath>
    <clipPath
       id="clip464">
      <path
         inkscape:connector-curvature="0"
         d="M 0.167969,0.234375 H 22.84375 V 24.976562 H 0.167969 Z m 0,0"
         id="path4984" />
    </clipPath>
    <clipPath
       id="clip465">
      <rect
         x="0"
         y="0"
         width="17"
         height="16"
         id="rect5003" />
    </clipPath>
    <clipPath
       id="clip466">
      <path
         inkscape:connector-curvature="0"
         d="M 0.382812,0.46875 H 16.628906 V 15.570312 H 0.382812 Z m 0,0"
         id="path5000" />
    </clipPath>
    <clipPath
       id="clip467">
      <rect
         x="0"
         y="0"
         width="23"
         height="25"
         id="rect5019" />
    </clipPath>
    <clipPath
       id="clip468">
      <path
         inkscape:connector-curvature="0"
         d="M 0.0507812,0.234375 H 22.726562 V 24.976562 H 0.0507812 Z m 0,0"
         id="path5016" />
    </clipPath>
    <clipPath
       id="clip469">
      <rect
         x="0"
         y="0"
         width="17"
         height="16"
         id="rect5035" />
    </clipPath>
    <clipPath
       id="clip470">
      <path
         inkscape:connector-curvature="0"
         d="M 0.265625,0.46875 H 16.511719 V 15.570312 H 0.265625 Z m 0,0"
         id="path5032" />
    </clipPath>
    <clipPath
       id="clip471">
      <rect
         x="0"
         y="0"
         width="24"
         height="25"
         id="rect5051" />
    </clipPath>
    <clipPath
       id="clip472">
      <path
         inkscape:connector-curvature="0"
         d="M 0.929688,0.234375 H 23.609375 V 24.976562 H 0.929688 Z m 0,0"
         id="path5048" />
    </clipPath>
    <clipPath
       id="clip473">
      <rect
         x="0"
         y="0"
         width="17"
         height="16"
         id="rect5067" />
    </clipPath>
    <clipPath
       id="clip474">
      <path
         inkscape:connector-curvature="0"
         d="m 0.144531,0.46875 h 16.25 v 15.101562 h -16.25 z m 0,0"
         id="path5064" />
    </clipPath>
    <clipPath
       id="clip476">
      <rect
         x="0"
         y="0"
         width="23"
         height="26"
         id="rect5086" />
    </clipPath>
    <clipPath
       id="clip477">
      <path
         inkscape:connector-curvature="0"
         d="M 0.167969,0.589844 H 22.84375 V 25.328125 H 0.167969 Z m 0,0"
         id="path5083" />
    </clipPath>
    <clipPath
       id="clip478">
      <rect
         x="0"
         y="0"
         width="17"
         height="16"
         id="rect5102" />
    </clipPath>
    <clipPath
       id="clip479">
      <path
         inkscape:connector-curvature="0"
         d="M 0.382812,0.824219 H 16.628906 V 15.921875 H 0.382812 Z m 0,0"
         id="path5099" />
    </clipPath>
    <clipPath
       id="clip481">
      <rect
         x="0"
         y="0"
         width="23"
         height="26"
         id="rect5121" />
    </clipPath>
    <clipPath
       id="clip482">
      <path
         inkscape:connector-curvature="0"
         d="M 0.0507812,0.589844 H 22.726562 V 25.328125 H 0.0507812 Z m 0,0"
         id="path5118" />
    </clipPath>
    <clipPath
       id="clip483">
      <rect
         x="0"
         y="0"
         width="17"
         height="16"
         id="rect5137" />
    </clipPath>
    <clipPath
       id="clip484">
      <path
         inkscape:connector-curvature="0"
         d="M 0.265625,0.824219 H 16.511719 V 15.921875 H 0.265625 Z m 0,0"
         id="path5134" />
    </clipPath>
    <clipPath
       id="clip486">
      <rect
         x="0"
         y="0"
         width="24"
         height="26"
         id="rect5156" />
    </clipPath>
    <clipPath
       id="clip487">
      <path
         inkscape:connector-curvature="0"
         d="M 0.929688,0.589844 H 23.609375 V 25.328125 H 0.929688 Z m 0,0"
         id="path5153" />
    </clipPath>
    <clipPath
       id="clip488">
      <rect
         x="0"
         y="0"
         width="17"
         height="16"
         id="rect5172" />
    </clipPath>
    <clipPath
       id="clip489">
      <path
         inkscape:connector-curvature="0"
         d="m 0.144531,0.824219 h 16.25 v 15.097656 h -16.25 z m 0,0"
         id="path5169" />
    </clipPath>
  </defs>
  <sodipodi:namedview
     id="base"
     pagecolor="#ffffff"
     bordercolor="#666666"
     borderopacity="1.0"
     inkscape:pageopacity="0"
     inkscape:pageshadow="2"
     inkscape:zoom="1.4"
     inkscape:cx="-79.966695"
     inkscape:cy="558.19257"
     inkscape:document-units="mm"
     inkscape:current-layer="layer3"
     showgrid="false"
     fit-margin-top="0"
     fit-margin-left="0"
     fit-margin-right="0"
     fit-margin-bottom="0"
     inkscape:window-width="1600"
     inkscape:window-height="882"
     inkscape:window-x="0"
     inkscape:window-y="23"
     inkscape:window-maximized="0"
     inkscape:document-rotation="0"
     inkscape:snap-text-baseline="true"
     showguides="false" />
  <metadata
     id="metadata22333">
    <rdf:RDF>
      <cc:Work
         rdf:about="">
        <dc:format>image/svg+xml</dc:format>
        <dc:type
           rdf:resource="http://purl.org/dc/dcmitype/StillImage" />
        <dc:title />
      </cc:Work>
    </rdf:RDF>
  </metadata>
  <g
     inkscape:label="orig"
     inkscape:groupmode="layer"
     id="layer1"
     transform="translate(-77.197996,-46.785373)"
     style="display:inline">
    <path
       inkscape:connector-curvature="0"
       style="fill:#e6e6e6;fill-opacity:1;fill-rule:nonzero;stroke:none;stroke-width:0.352778"
       d="M 77.291704,46.879082 H 117.74401 V 175.19235 H 77.291704 Z m 0,0"
       id="path11739" />
    <path
       inkscape:connector-curvature="0"
       style="fill:#ababab;fill-opacity:1;fill-rule:nonzero;stroke:none;stroke-width:0.352778"
       d="M 117.83772,46.785373 H 77.197996 V 175.28606 H 117.83772 Z M 117.65031,175.09865 H 77.384033 V 46.972787 h 40.266277 z m 0,0"
       id="path11741" />
    <path
       inkscape:connector-curvature="0"
       style="fill:#000000;fill-opacity:1;fill-rule:nonzero;stroke:none;stroke-width:0.352778"
       d="m 94.765228,171.1423 c -0.117133,0 -0.224621,-0.0661 -0.275608,-0.1695 l -1.003212,-2.00505 c -0.07579,-0.15296 -0.01379,-0.33761 0.137802,-0.41479 0.151585,-0.0758 0.337619,-0.0138 0.413413,0.13919 l 0.727605,1.45245 0.726224,-1.45245 c 0.07579,-0.15297 0.261828,-0.21498 0.413414,-0.13919 0.15296,0.0772 0.214972,0.26183 0.137802,0.41479 l -1.001833,2.00505 c -0.05237,0.10336 -0.159854,0.1695 -0.275607,0.1695"
       id="path11803" />
    <path
       inkscape:connector-curvature="0"
       style="fill:#000000;fill-opacity:1;fill-rule:nonzero;stroke:none;stroke-width:0.352778"
       d="m 100.27049,171.1423 c -0.11714,0 -0.22324,-0.0661 -0.275607,-0.1695 l -1.003212,-2.00505 c -0.07579,-0.15296 -0.01379,-0.33761 0.139181,-0.41479 0.151582,-0.0758 0.337619,-0.0138 0.41341,0.13919 l 0.726228,1.45245 0.72623,-1.45245 c 0.0758,-0.15297 0.26182,-0.21498 0.41341,-0.13919 0.15296,0.0772 0.21497,0.26183 0.13918,0.41479 l -1.00321,2.00505 c -0.0524,0.10336 -0.15848,0.1695 -0.27561,0.1695"
       id="path11805" />
    <path
       inkscape:connector-curvature="0"
       style="fill:#000000;fill-opacity:1;fill-rule:nonzero;stroke:none;stroke-width:0.352778"
       d="m 97.667375,171.1423 c -0.72347,0 -1.311892,-0.58705 -1.311892,-1.31051 0,-0.72209 0.588422,-1.31052 1.311892,-1.31052 0.286632,0 0.558105,0.091 0.78686,0.26183 0.135047,0.10197 0.16261,0.29628 0.06063,0.4327 -0.101974,0.13505 -0.294897,0.16261 -0.431324,0.0606 -0.121267,-0.091 -0.264583,-0.13919 -0.416168,-0.13919 -0.383096,0 -0.694531,0.31144 -0.694531,0.69454 0,0.38309 0.311435,0.69452 0.694531,0.69452 0.151585,0 0.294901,-0.0482 0.416168,-0.13918 0.136427,-0.10197 0.32935,-0.0744 0.431324,0.062 0.101978,0.13504 0.07442,0.32935 -0.06063,0.43132 -0.228755,0.17088 -0.500228,0.26183 -0.78686,0.26183"
       id="path11807" />
    <path
       inkscape:connector-curvature="0"
       style="fill:#000000;fill-opacity:1;fill-rule:nonzero;stroke:none;stroke-width:0.352778"
       d="m 98.087678,169.81662 c 0,0.22187 -0.179148,0.40102 -0.40101,0.40102 -0.220486,0 -0.399633,-0.17915 -0.399633,-0.40102 0,-0.22186 0.179147,-0.401 0.399633,-0.401 0.221862,0 0.40101,0.17914 0.40101,0.401"
       id="path11809" />
    <g
       id="use11811"
       style="fill:#000000;fill-opacity:1"
       transform="matrix(0.35277777,0,0,0.35277777,88.489314,56.350954)">
      <path
         id="path21846"
         d="m 1.015625,-0.828125 c 0,0.5 0.390625,0.90625 0.890625,0.90625 0.5,0 0.90625,-0.40625 0.90625,-0.90625 V -5 l 1.609375,2.453125 c 0.1875,0.296875 0.421875,0.46875 0.765625,0.46875 0.328125,0 0.578125,-0.171875 0.765625,-0.46875 l 1.625,-2.5 v 4.1875 c 0,0.515625 0.40625,0.9375 0.90625,0.9375 0.515625,0 0.921875,-0.421875 0.921875,-0.9375 V -7.53125 C 9.40625,-8.046875 9,-8.453125 8.484375,-8.453125 H 8.28125 c -0.375,0 -0.640625,0.15625 -0.828125,0.46875 l -2.25,3.65625 L 2.96875,-7.96875 C 2.8125,-8.25 2.53125,-8.453125 2.140625,-8.453125 H 1.9375 c -0.515625,0 -0.921875,0.40625 -0.921875,0.921875 z m 0,0"
         style="stroke:none"
         inkscape:connector-curvature="0" />
    </g>
    <g
       id="use11815"
       style="fill:#000000;fill-opacity:1"
       transform="matrix(0.35277777,0,0,0.35277777,92.207451,56.350954)">
      <path
         id="path21842"
         d="m 1.09375,-0.859375 c 0,0.515625 0.40625,0.9375 0.921875,0.9375 0.515625,0 0.921875,-0.421875 0.921875,-0.9375 v -6.6875 C 2.9375,-8.0625 2.53125,-8.46875 2.015625,-8.46875 1.5,-8.46875 1.09375,-8.0625 1.09375,-7.546875 Z m 0,0"
         style="stroke:none"
         inkscape:connector-curvature="0" />
    </g>
    <g
       id="use11819"
       style="fill:#000000;fill-opacity:1"
       transform="matrix(0.35277777,0,0,0.35277777,93.664141,56.350954)">
      <path
         id="path21834"
         d="M 1.015625,-0.921875 C 1.015625,-0.40625 1.421875,0 1.9375,0 H 4.28125 C 6.921875,0 8.75,-1.84375 8.75,-4.203125 V -4.21875 c 0,-2.375 -1.828125,-4.1875 -4.46875,-4.1875 H 1.9375 c -0.515625,0 -0.921875,0.421875 -0.921875,0.9375 z m 1.84375,-0.75 v -5.0625 H 4.28125 c 1.515625,0 2.53125,1.046875 2.53125,2.53125 v 0.03125 c 0,1.484375 -1.015625,2.5 -2.53125,2.5 z m 0,0"
         style="stroke:none"
         inkscape:connector-curvature="0" />
    </g>
    <g
       id="use11821"
       style="fill:#000000;fill-opacity:1"
       transform="matrix(0.35277777,0,0,0.35277777,96.983047,56.350954)">
      <path
         id="path21838"
         d="m 1.09375,-0.859375 c 0,0.515625 0.40625,0.9375 0.921875,0.9375 0.515625,0 0.921875,-0.421875 0.921875,-0.9375 v -6.6875 C 2.9375,-8.0625 2.53125,-8.46875 2.015625,-8.46875 1.5,-8.46875 1.09375,-8.0625 1.09375,-7.546875 Z m 0,0"
         style="stroke:none"
         inkscape:connector-curvature="0" />
    </g>
    <g
       id="use11825"
       style="fill:#000000;fill-opacity:1"
       transform="matrix(0.35277777,0,0,0.35277777,98.484611,56.350954)">
      <path
         id="path21830"
         d="m 1.40625,-2.84375 h 2.078125 c 0.484375,0 0.890625,-0.390625 0.890625,-0.875 0,-0.484375 -0.40625,-0.875 -0.890625,-0.875 H 1.40625 c -0.484375,0 -0.875,0.390625 -0.875,0.875 0,0.484375 0.390625,0.875 0.875,0.875 z m 0,0"
         style="stroke:none"
         inkscape:connector-curvature="0" />
    </g>
    <g
       id="use11829"
       style="fill:#000000;fill-opacity:1"
       transform="matrix(0.35277777,0,0,0.35277777,100.36085,56.350954)">
      <path
         id="path21826"
         d="m 4.9375,0.140625 c 1.34375,0 2.234375,-0.390625 3,-1.046875 0.15625,-0.15625 0.3125,-0.375 0.3125,-0.671875 0,-0.46875 -0.40625,-0.84375 -0.875,-0.84375 -0.21875,0 -0.40625,0.078125 -0.546875,0.203125 C 6.296875,-1.796875 5.78125,-1.5625 5,-1.5625 c -1.4375,0 -2.4375,-1.203125 -2.4375,-2.640625 V -4.21875 c 0,-1.4375 1.03125,-2.625 2.4375,-2.625 0.65625,0 1.203125,0.21875 1.71875,0.609375 C 6.859375,-6.15625 7.015625,-6.0625 7.265625,-6.0625 7.78125,-6.0625 8.1875,-6.453125 8.1875,-6.953125 8.1875,-7.28125 8.015625,-7.546875 7.828125,-7.6875 7.125,-8.203125 6.28125,-8.546875 5.015625,-8.546875 c -2.578125,0 -4.375,1.953125 -4.375,4.34375 v 0.03125 c 0,2.40625 1.828125,4.3125 4.296875,4.3125 z m 0,0"
         style="stroke:none"
         inkscape:connector-curvature="0" />
    </g>
    <g
       id="use11833"
       style="fill:#000000;fill-opacity:1"
       transform="matrix(0.35277777,0,0,0.35277777,103.51003,56.350954)">
      <path
         id="path21822"
         d="m 4.296875,0.125 h 0.125 c 0.5,0 0.84375,-0.265625 1.03125,-0.71875 l 2.75,-6.578125 C 8.25,-7.28125 8.296875,-7.4375 8.296875,-7.578125 c 0,-0.515625 -0.40625,-0.890625 -0.90625,-0.890625 -0.4375,0 -0.765625,0.28125 -0.890625,0.578125 l -2.125,5.5 -2.09375,-5.4375 c -0.140625,-0.375 -0.453125,-0.640625 -0.9375,-0.640625 -0.515625,0 -0.921875,0.390625 -0.921875,0.90625 0,0.15625 0.046875,0.296875 0.109375,0.453125 L 3.25,-0.59375 C 3.4375,-0.140625 3.796875,0.125 4.296875,0.125 Z m 0,0"
         style="stroke:none"
         inkscape:connector-curvature="0" />
    </g>
    <g
       id="use11837"
       style="fill:#000000;fill-opacity:1"
       transform="matrix(0.35277777,0,0,0.35277777,86.987407,98.376627)">
      <path
         id="path21818"
         d="m 0.71875,-0.453125 c 0,0.28125 0.21875,0.5 0.5,0.5 0.265625,0 0.484375,-0.21875 0.484375,-0.5 V -2.28125 H 4.125 c 0.25,0 0.4375,-0.203125 0.4375,-0.453125 0,-0.234375 -0.1875,-0.4375 -0.4375,-0.4375 H 1.703125 v -1.53125 h 2.78125 c 0.25,0 0.4375,-0.203125 0.4375,-0.453125 0,-0.25 -0.1875,-0.4375 -0.4375,-0.4375 H 1.21875 c -0.28125,0 -0.5,0.203125 -0.5,0.484375 z m 0,0"
         style="stroke:none"
         inkscape:connector-curvature="0" />
    </g>
    <g
       id="use11841"
       style="fill:#000000;fill-opacity:1"
       transform="matrix(0.35277777,0,0,0.35277777,88.876611,98.376627)">
      <path
         id="path21814"
         d="m 0.71875,-0.453125 c 0,0.28125 0.21875,0.5 0.5,0.5 0.265625,0 0.484375,-0.21875 0.484375,-0.5 v -1.5 H 2.9375 l 1.359375,1.734375 c 0.125,0.15625 0.265625,0.265625 0.484375,0.265625 0.25,0 0.46875,-0.1875 0.46875,-0.46875 0,-0.140625 -0.0625,-0.25 -0.15625,-0.375 l -1.0625,-1.34375 C 4.78125,-2.375 5.296875,-2.921875 5.296875,-3.8125 v -0.015625 c 0,-0.484375 -0.171875,-0.90625 -0.46875,-1.21875 C 4.46875,-5.390625 3.921875,-5.59375 3.21875,-5.59375 h -2 c -0.28125,0 -0.5,0.203125 -0.5,0.484375 z m 0.984375,-2.375 v -1.875 h 1.4375 c 0.71875,0 1.15625,0.328125 1.15625,0.921875 v 0.015625 c 0,0.578125 -0.453125,0.9375 -1.15625,0.9375 z m 0,0"
         style="stroke:none"
         inkscape:connector-curvature="0" />
    </g>
    <g
       id="use11845"
       style="fill:#000000;fill-opacity:1"
       transform="matrix(0.35277777,0,0,0.35277777,90.959967,98.376627)">
      <path
         id="path21806"
         d="m 3.390625,0.09375 c 1.71875,0 2.9375,-1.3125 2.9375,-2.890625 V -2.8125 c 0,-1.578125 -1.203125,-2.890625 -2.921875,-2.890625 -1.71875,0 -2.9375,1.328125 -2.9375,2.90625 v 0.015625 c 0,1.578125 1.203125,2.875 2.921875,2.875 z M 3.40625,-0.8125 C 2.296875,-0.8125 1.5,-1.71875 1.5,-2.796875 V -2.8125 c 0,-1.09375 0.78125,-1.984375 1.890625,-1.984375 1.109375,0 1.90625,0.90625 1.90625,2 v 0.015625 c 0,1.078125 -0.78125,1.96875 -1.890625,1.96875 z m 0,0"
         style="stroke:none"
         inkscape:connector-curvature="0" />
    </g>
    <g
       id="use11847"
       style="fill:#000000;fill-opacity:1"
       transform="matrix(0.35277777,0,0,0.35277777,93.426598,98.376627)">
      <path
         id="path21810"
         d="m 0.71875,-0.4375 c 0,0.265625 0.203125,0.484375 0.484375,0.484375 0.265625,0 0.484375,-0.21875 0.484375,-0.484375 V -3.796875 L 3.046875,-1.75 c 0.109375,0.15625 0.234375,0.25 0.40625,0.25 0.1875,0 0.3125,-0.09375 0.421875,-0.25 l 1.359375,-2.0625 v 3.359375 c 0,0.265625 0.234375,0.5 0.5,0.5 0.28125,0 0.484375,-0.21875 0.484375,-0.5 v -4.6875 C 6.21875,-5.40625 6.015625,-5.625 5.734375,-5.625 H 5.625 c -0.203125,0 -0.34375,0.078125 -0.453125,0.25 L 3.46875,-2.71875 1.78125,-5.375 C 1.6875,-5.515625 1.53125,-5.625 1.3125,-5.625 H 1.21875 c -0.28125,0 -0.5,0.21875 -0.5,0.484375 z m 0,0"
         style="stroke:none"
         inkscape:connector-curvature="0" />
    </g>
    <g
       id="use11851"
       style="fill:#000000;fill-opacity:1"
       transform="matrix(0.35277777,0,0,0.35277777,95.876586,98.376627)">
      <path
         id="path21798"
         d=""
         style="stroke:none"
         inkscape:connector-curvature="0" />
    </g>
    <g
       id="use11853"
       style="fill:#000000;fill-opacity:1"
       transform="matrix(0.35277777,0,0,0.35277777,96.723253,98.376627)">
      <path
         id="path21802"
         d="m 0.71875,-0.5 c 0,0.28125 0.21875,0.5 0.5,0.5 H 2.8125 c 1.75,0 2.96875,-1.21875 2.96875,-2.796875 V -2.8125 c 0,-1.578125 -1.21875,-2.78125 -2.96875,-2.78125 H 1.21875 c -0.28125,0 -0.5,0.203125 -0.5,0.484375 z m 0.984375,-0.390625 v -3.8125 H 2.8125 c 1.171875,0 1.9375,0.8125 1.9375,1.90625 v 0.015625 c 0,1.09375 -0.765625,1.890625 -1.9375,1.890625 z m 0,0"
         style="stroke:none"
         inkscape:connector-curvature="0" />
    </g>
    <g
       id="use11857"
       style="fill:#000000;fill-opacity:1"
       transform="matrix(0.35277777,0,0,0.35277777,98.991473,98.376627)">
      <path
         id="path21794"
         d="m 1.21875,0 h 3.296875 c 0.234375,0 0.4375,-0.1875 0.4375,-0.4375 0,-0.25 -0.203125,-0.4375 -0.4375,-0.4375 h -2.8125 v -1.515625 h 2.40625 c 0.25,0 0.4375,-0.1875 0.4375,-0.421875 0,-0.25 -0.1875,-0.453125 -0.4375,-0.453125 H 1.703125 V -4.71875 H 4.46875 c 0.25,0 0.4375,-0.1875 0.4375,-0.4375 0,-0.25 -0.1875,-0.4375 -0.4375,-0.4375 h -3.25 c -0.28125,0 -0.5,0.203125 -0.5,0.484375 V -0.5 c 0,0.28125 0.21875,0.5 0.5,0.5 z m 0,0"
         style="stroke:none"
         inkscape:connector-curvature="0" />
    </g>
    <g
       id="use11861"
       style="fill:#000000;fill-opacity:1"
       transform="matrix(0.35277777,0,0,0.35277777,100.96392,98.376627)">
      <path
         id="path21790"
         d="m 2.90625,0.078125 h 0.046875 c 0.28125,0 0.46875,-0.15625 0.578125,-0.390625 L 5.5,-4.953125 c 0.015625,-0.0625 0.046875,-0.140625 0.046875,-0.21875 0,-0.265625 -0.21875,-0.46875 -0.484375,-0.46875 -0.234375,0 -0.421875,0.15625 -0.484375,0.328125 L 2.9375,-1.25 1.328125,-5.28125 c -0.078125,-0.21875 -0.25,-0.359375 -0.5,-0.359375 -0.28125,0 -0.5,0.21875 -0.5,0.484375 0,0.078125 0.03125,0.15625 0.0625,0.234375 L 2.34375,-0.3125 c 0.109375,0.234375 0.28125,0.390625 0.5625,0.390625 z m 0,0"
         style="stroke:none"
         inkscape:connector-curvature="0" />
    </g>
    <g
       id="use11865"
       style="fill:#000000;fill-opacity:1"
       transform="matrix(0.35277777,0,0,0.35277777,103.0614,98.376627)">
      <path
         id="path21786"
         d="m 0.78125,-0.453125 c 0,0.28125 0.203125,0.5 0.484375,0.5 0.28125,0 0.5,-0.21875 0.5,-0.5 V -5.15625 c 0,-0.265625 -0.21875,-0.484375 -0.5,-0.484375 -0.28125,0 -0.484375,0.21875 -0.484375,0.484375 z m 0,0"
         style="stroke:none"
         inkscape:connector-curvature="0" />
    </g>
    <g
       id="use11869"
       style="fill:#000000;fill-opacity:1"
       transform="matrix(0.35277777,0,0,0.35277777,104.00797,98.376627)">
      <path
         id="path21778"
         d="m 3.3125,0.09375 c 0.90625,0 1.515625,-0.28125 2.046875,-0.75 0.078125,-0.078125 0.15625,-0.203125 0.15625,-0.359375 0,-0.234375 -0.21875,-0.453125 -0.46875,-0.453125 -0.125,0 -0.21875,0.046875 -0.296875,0.109375 C 4.34375,-1.015625 3.9375,-0.8125 3.359375,-0.8125 2.28125,-0.8125 1.5,-1.703125 1.5,-2.796875 V -2.8125 c 0,-1.09375 0.78125,-1.984375 1.859375,-1.984375 0.53125,0 0.9375,0.203125 1.328125,0.515625 0.0625,0.046875 0.15625,0.09375 0.296875,0.09375 0.265625,0 0.484375,-0.21875 0.484375,-0.484375 0,-0.171875 -0.078125,-0.3125 -0.1875,-0.390625 -0.484375,-0.375 -1.0625,-0.640625 -1.921875,-0.640625 -1.703125,0 -2.890625,1.3125 -2.890625,2.90625 v 0.015625 c 0,1.609375 1.21875,2.875 2.84375,2.875 z m 0,0"
         style="stroke:none"
         inkscape:connector-curvature="0" />
    </g>
    <g
       id="use11871"
       style="fill:#000000;fill-opacity:1"
       transform="matrix(0.35277777,0,0,0.35277777,106.15848,98.376627)">
      <path
         id="path21782"
         d="m 1.21875,0 h 3.296875 c 0.234375,0 0.4375,-0.1875 0.4375,-0.4375 0,-0.25 -0.203125,-0.4375 -0.4375,-0.4375 h -2.8125 v -1.515625 h 2.40625 c 0.25,0 0.4375,-0.1875 0.4375,-0.421875 0,-0.25 -0.1875,-0.453125 -0.4375,-0.453125 H 1.703125 V -4.71875 H 4.46875 c 0.25,0 0.4375,-0.1875 0.4375,-0.4375 0,-0.25 -0.1875,-0.4375 -0.4375,-0.4375 h -3.25 c -0.28125,0 -0.5,0.203125 -0.5,0.484375 V -0.5 c 0,0.28125 0.21875,0.5 0.5,0.5 z m 0,0"
         style="stroke:none"
         inkscape:connector-curvature="0" />
    </g>
    <path
       inkscape:connector-curvature="0"
       style="fill:#000000;fill-opacity:1;fill-rule:nonzero;stroke:none;stroke-width:0.352778"
       d="m 113.95854,119.20541 c 0,-0.54983 -0.44924,-1.00045 -1.00045,-1.00045 h -7.68119 c -0.55121,0 -1.00046,0.45062 -1.00046,1.00045 v 12.17222 c 0,0.54983 0.44925,1.00045 1.00046,1.00045 h 7.68119 c 0.55121,0 1.00045,-0.45062 1.00045,-1.00045 z m 0,0"
       id="path11875" />
    <path
       inkscape:connector-curvature="0"
       style="fill:#000000;fill-opacity:1;fill-rule:nonzero;stroke:none;stroke-width:0.352778"
       d="m 102.35822,119.20541 c 0,-0.54983 -0.44924,-1.00045 -0.99908,-1.00045 h -7.682564 c -0.549835,0 -1.000456,0.45062 -1.000456,1.00045 v 12.17222 c 0,0.54983 0.450621,1.00045 1.000456,1.00045 h 7.682564 c 0.54984,0 0.99908,-0.45062 0.99908,-1.00045 z m 0,0"
       id="path11877" />
    <path
       inkscape:connector-curvature="0"
       style="fill:#000000;fill-opacity:1;fill-rule:nonzero;stroke:none;stroke-width:0.352778"
       d="m 90.75927,119.20541 c 0,-0.54983 -0.450621,-1.00045 -1.000456,-1.00045 h -7.682561 c -0.54984,0 -0.999078,0.45062 -0.999078,1.00045 v 12.17222 c 0,0.54983 0.449238,1.00045 0.999078,1.00045 h 7.682561 c 0.549835,0 1.000456,-0.45062 1.000456,-1.00045 z m 0,0"
       id="path11879" />
    <g
       id="use11881"
       style="fill:#ffffff;fill-opacity:1"
       transform="matrix(0.35277777,0,0,0.35277777,83.468925,121.29254)">
      <path
         id="path21770"
         d="m 0.234375,-0.421875 c 0,0.25 0.203125,0.453125 0.46875,0.453125 0.203125,0 0.375,-0.109375 0.453125,-0.296875 l 0.3125,-0.75 H 3.484375 L 3.78125,-0.3125 c 0.09375,0.21875 0.25,0.34375 0.484375,0.34375 0.265625,0 0.46875,-0.203125 0.46875,-0.46875 0,-0.0625 -0.015625,-0.140625 -0.046875,-0.203125 L 3.09375,-4.21875 C 2.984375,-4.46875 2.796875,-4.625 2.515625,-4.625 H 2.46875 c -0.28125,0 -0.484375,0.15625 -0.59375,0.40625 l -1.578125,3.578125 c -0.03125,0.0625 -0.0625,0.140625 -0.0625,0.21875 z m 1.609375,-1.484375 0.625,-1.5 0.640625,1.5 z m 0,0"
         style="stroke:none"
         inkscape:connector-curvature="0" />
    </g>
    <g
       id="use11883"
       style="fill:#ffffff;fill-opacity:1"
       transform="matrix(0.35277777,0,0,0.35277777,85.268965,121.29254)">
      <path
         id="path21774"
         d="m 0.546875,-0.46875 c 0,0.28125 0.21875,0.5 0.5,0.5 0.28125,0 0.5,-0.21875 0.5,-0.5 v -1.296875 h 1.75 C 3.5625,-1.765625 3.75,-1.96875 3.75,-2.21875 c 0,-0.25 -0.1875,-0.453125 -0.453125,-0.453125 h -1.75 v -0.96875 H 3.59375 c 0.25,0 0.453125,-0.203125 0.453125,-0.453125 0,-0.25 -0.203125,-0.453125 -0.453125,-0.453125 H 1.046875 c -0.28125,0 -0.5,0.21875 -0.5,0.5 z m 0,0"
         style="stroke:none"
         inkscape:connector-curvature="0" />
    </g>
    <g
       id="use11887"
       style="fill:#ffffff;fill-opacity:1"
       transform="matrix(0.35277777,0,0,0.35277777,86.87869,121.29254)">
      <path
         id="path21766"
         d="m 1.609375,-0.46875 c 0,0.28125 0.21875,0.5 0.5,0.5 0.28125,0 0.5,-0.21875 0.5,-0.5 V -3.625 H 3.5625 c 0.265625,0 0.46875,-0.203125 0.46875,-0.46875 0,-0.25 -0.203125,-0.453125 -0.46875,-0.453125 H 0.640625 c -0.25,0 -0.453125,0.203125 -0.453125,0.453125 0,0.265625 0.203125,0.46875 0.453125,0.46875 h 0.96875 z m 0,0"
         style="stroke:none"
         inkscape:connector-curvature="0" />
    </g>
    <g
       id="use11891"
       style="fill:#ffffff;fill-opacity:1"
       transform="matrix(0.35277777,0,0,0.35277777,95.459312,121.29254)">
      <path
         id="path21758"
         d="m 0.546875,-0.46875 c 0,0.28125 0.21875,0.5 0.5,0.5 0.28125,0 0.5,-0.21875 0.5,-0.5 V -1.359375 H 2.3125 c 1.015625,0 1.828125,-0.546875 1.828125,-1.609375 v -0.015625 c 0,-0.921875 -0.65625,-1.5625 -1.734375,-1.5625 H 1.046875 c -0.28125,0 -0.5,0.21875 -0.5,0.5 z m 1,-1.78125 v -1.390625 h 0.78125 c 0.5,0 0.8125,0.234375 0.8125,0.6875 V -2.9375 c 0,0.390625 -0.296875,0.6875 -0.796875,0.6875 z m 0,0"
         style="stroke:none"
         inkscape:connector-curvature="0" />
    </g>
    <g
       id="use11893"
       style="fill:#ffffff;fill-opacity:1"
       transform="matrix(0.35277777,0,0,0.35277777,97.059856,121.29254)">
      <path
         id="path21762"
         d="M 1.53125,-0.34375 C 1.625,-0.078125 1.8125,0.078125 2.046875,0.078125 H 2.15625 c 0.25,0 0.421875,-0.15625 0.515625,-0.421875 L 3.5625,-2.9375 4.46875,-0.34375 c 0.09375,0.265625 0.265625,0.421875 0.515625,0.421875 h 0.09375 c 0.25,0 0.4375,-0.15625 0.53125,-0.421875 L 6.875,-3.90625 c 0.015625,-0.0625 0.046875,-0.140625 0.046875,-0.203125 0,-0.265625 -0.234375,-0.484375 -0.5,-0.484375 -0.25,0 -0.421875,0.171875 -0.484375,0.359375 L 5.03125,-1.4375 4.125,-4.203125 c -0.078125,-0.25 -0.25,-0.40625 -0.5,-0.40625 H 3.546875 c -0.265625,0 -0.4375,0.171875 -0.515625,0.40625 L 2.125,-1.4375 1.21875,-4.234375 C 1.15625,-4.4375 0.96875,-4.59375 0.734375,-4.59375 c -0.28125,0 -0.515625,0.21875 -0.515625,0.5 0,0.046875 0.015625,0.125 0.046875,0.1875 z m 0,0"
         style="stroke:none"
         inkscape:connector-curvature="0" />
    </g>
    <g
       id="use11897"
       style="fill:#ffffff;fill-opacity:1"
       transform="matrix(0.35277777,0,0,0.35277777,106.83745,121.29254)">
      <path
         id="path21750"
         d="m 0.546875,-0.453125 c 0,0.28125 0.21875,0.484375 0.484375,0.484375 0.28125,0 0.5,-0.203125 0.5,-0.484375 v -2.25 L 2.390625,-1.375 C 2.5,-1.21875 2.625,-1.125 2.8125,-1.125 c 0.171875,0 0.3125,-0.09375 0.40625,-0.25 l 0.875,-1.359375 v 2.265625 c 0,0.28125 0.234375,0.5 0.5,0.5 0.28125,0 0.5,-0.21875 0.5,-0.5 v -3.609375 c 0,-0.28125 -0.21875,-0.5 -0.5,-0.5 H 4.484375 c -0.203125,0 -0.34375,0.09375 -0.453125,0.25 L 2.828125,-2.34375 1.609375,-4.3125 C 1.515625,-4.46875 1.375,-4.578125 1.15625,-4.578125 H 1.046875 c -0.28125,0 -0.5,0.21875 -0.5,0.5 z m 0,0"
         style="stroke:none"
         inkscape:connector-curvature="0" />
    </g>
    <g
       id="use11899"
       style="fill:#ffffff;fill-opacity:1"
       transform="matrix(0.35277777,0,0,0.35277777,108.88057,121.29254)">
      <path
         id="path21754"
         d="M 1.53125,-0.34375 C 1.625,-0.078125 1.8125,0.078125 2.046875,0.078125 H 2.15625 c 0.25,0 0.421875,-0.15625 0.515625,-0.421875 L 3.5625,-2.9375 4.46875,-0.34375 c 0.09375,0.265625 0.265625,0.421875 0.515625,0.421875 h 0.09375 c 0.25,0 0.4375,-0.15625 0.53125,-0.421875 L 6.875,-3.90625 c 0.015625,-0.0625 0.046875,-0.140625 0.046875,-0.203125 0,-0.265625 -0.234375,-0.484375 -0.5,-0.484375 -0.25,0 -0.421875,0.171875 -0.484375,0.359375 L 5.03125,-1.4375 4.125,-4.203125 c -0.078125,-0.25 -0.25,-0.40625 -0.5,-0.40625 H 3.546875 c -0.265625,0 -0.4375,0.171875 -0.515625,0.40625 L 2.125,-1.4375 1.21875,-4.234375 C 1.15625,-4.4375 0.96875,-4.59375 0.734375,-4.59375 c -0.28125,0 -0.515625,0.21875 -0.515625,0.5 0,0.046875 0.015625,0.125 0.046875,0.1875 z m 0,0"
         style="stroke:none"
         inkscape:connector-curvature="0" />
    </g>
    <path
       inkscape:connector-curvature="0"
       style="fill:#000000;fill-opacity:1;fill-rule:nonzero;stroke:none;stroke-width:0.352778"
       d="m 113.95854,103.20501 c 0,-0.54983 -0.44924,-1.00045 -1.00045,-1.00045 h -7.68119 c -0.55121,0 -1.00046,0.45062 -1.00046,1.00045 v 12.17222 c 0,0.55121 0.44925,1.00045 1.00046,1.00045 h 7.68119 c 0.55121,0 1.00045,-0.44924 1.00045,-1.00045 z m 0,0"
       id="path11903" />
    <path
       inkscape:connector-curvature="0"
       style="fill:#000000;fill-opacity:1;fill-rule:nonzero;stroke:none;stroke-width:0.352778"
       d="m 102.35822,103.20501 c 0,-0.54983 -0.44924,-1.00045 -0.99908,-1.00045 h -7.682564 c -0.549835,0 -1.000456,0.45062 -1.000456,1.00045 v 12.17222 c 0,0.55121 0.450621,1.00045 1.000456,1.00045 h 7.682564 c 0.54984,0 0.99908,-0.44924 0.99908,-1.00045 z m 0,0"
       id="path11905" />
    <path
       inkscape:connector-curvature="0"
       style="fill:#000000;fill-opacity:1;fill-rule:nonzero;stroke:none;stroke-width:0.352778"
       d="m 90.75927,103.20501 c 0,-0.54983 -0.450621,-1.00045 -1.000456,-1.00045 h -7.682561 c -0.54984,0 -0.999078,0.45062 -0.999078,1.00045 v 12.17222 c 0,0.55121 0.449238,1.00045 0.999078,1.00045 h 7.682561 c 0.549835,0 1.000456,-0.44924 1.000456,-1.00045 z m 0,0"
       id="path11907" />
    <g
       id="use11909"
       style="fill:#ffffff;fill-opacity:1"
       transform="matrix(0.35277777,0,0,0.35277777,81.908651,105.29182)">
      <path
         id="path21742"
         d="m 2.328125,0.078125 h 0.0625 c 0.28125,0 0.46875,-0.15625 0.5625,-0.40625 l 1.5,-3.5625 C 4.46875,-3.953125 4.5,-4.03125 4.5,-4.109375 4.5,-4.375 4.28125,-4.59375 4,-4.59375 c -0.234375,0 -0.40625,0.15625 -0.484375,0.328125 L 2.375,-1.296875 1.234375,-4.234375 c -0.078125,-0.203125 -0.25,-0.359375 -0.5,-0.359375 -0.28125,0 -0.5,0.21875 -0.5,0.5 0,0.078125 0.015625,0.15625 0.046875,0.234375 l 1.484375,3.53125 c 0.09375,0.25 0.28125,0.40625 0.5625,0.40625 z m 0,0"
         style="stroke:none"
         inkscape:connector-curvature="0" />
    </g>
    <g
       id="use11911"
       style="fill:#ffffff;fill-opacity:1"
       transform="matrix(0.35277777,0,0,0.35277777,83.481678,105.29182)">
      <path
         id="path21746"
         d="m 0.015625,0.5 c 0,0.203125 0.171875,0.375 0.390625,0.375 0.15625,0 0.265625,-0.078125 0.34375,-0.234375 l 2.53125,-5.3125 c 0.03125,-0.046875 0.046875,-0.109375 0.046875,-0.1875 0,-0.1875 -0.171875,-0.359375 -0.375,-0.359375 -0.15625,0 -0.28125,0.078125 -0.34375,0.21875 L 0.0625,0.3125 C 0.046875,0.359375 0.015625,0.421875 0.015625,0.5 Z m 0,0"
         style="stroke:none"
         inkscape:connector-curvature="0" />
    </g>
    <g
       id="use11915"
       style="fill:#ffffff;fill-opacity:1"
       transform="matrix(0.35277777,0,0,0.35277777,84.65275,105.29182)">
      <path
         id="path21738"
         d="m 2.75,0.078125 c 1.40625,0 2.4375,-1.0625 2.4375,-2.359375 0,-1.296875 -1.015625,-2.34375 -2.421875,-2.34375 -1.40625,0 -2.421875,1.0625 -2.421875,2.34375 v 0.015625 c 0,1.296875 1.015625,2.34375 2.40625,2.34375 z M 2.765625,-0.84375 c -0.796875,0 -1.375,-0.65625 -1.375,-1.4375 0,-0.78125 0.5625,-1.421875 1.359375,-1.421875 0.8125,0 1.390625,0.640625 1.390625,1.421875 v 0.015625 c 0,0.78125 -0.5625,1.421875 -1.375,1.421875 z m 0,0"
         style="stroke:none"
         inkscape:connector-curvature="0" />
    </g>
    <g
       id="use11919"
       style="fill:#ffffff;fill-opacity:1"
       transform="matrix(0.35277777,0,0,0.35277777,86.668108,105.29182)">
      <path
         id="path21734"
         d="m 2.671875,0.078125 c 0.734375,0 1.21875,-0.21875 1.625,-0.578125 C 4.390625,-0.578125 4.46875,-0.703125 4.46875,-0.84375 4.46875,-1.109375 4.25,-1.3125 4,-1.3125 c -0.125,0 -0.21875,0.046875 -0.296875,0.109375 -0.296875,0.234375 -0.5625,0.359375 -1,0.359375 -0.765625,0 -1.3125,-0.65625 -1.3125,-1.4375 0,-0.78125 0.546875,-1.421875 1.3125,-1.421875 0.359375,0 0.65625,0.109375 0.9375,0.328125 0.078125,0.046875 0.15625,0.09375 0.296875,0.09375 0.28125,0 0.5,-0.21875 0.5,-0.484375 0,-0.1875 -0.09375,-0.328125 -0.203125,-0.40625 C 3.859375,-4.453125 3.40625,-4.625 2.71875,-4.625 c -1.40625,0 -2.375,1.0625 -2.375,2.34375 v 0.015625 c 0,1.3125 1,2.34375 2.328125,2.34375 z m 0,0"
         style="stroke:none"
         inkscape:connector-curvature="0" />
    </g>
    <g
       id="use11923"
       style="fill:#ffffff;fill-opacity:1"
       transform="matrix(0.35277777,0,0,0.35277777,88.439731,105.29182)">
      <path
         id="path21730"
         d="m 1.609375,-0.46875 c 0,0.28125 0.21875,0.5 0.5,0.5 0.28125,0 0.5,-0.21875 0.5,-0.5 V -3.625 H 3.5625 c 0.265625,0 0.46875,-0.203125 0.46875,-0.46875 0,-0.25 -0.203125,-0.453125 -0.46875,-0.453125 H 0.640625 c -0.25,0 -0.453125,0.203125 -0.453125,0.453125 0,0.265625 0.203125,0.46875 0.453125,0.46875 h 0.96875 z m 0,0"
         style="stroke:none"
         inkscape:connector-curvature="0" />
    </g>
    <g
       id="use11927"
       style="fill:#ffffff;fill-opacity:1"
       transform="matrix(0.35277777,0,0,0.35277777,94.231539,105.29182)">
      <path
         id="path21722"
         d="m 2.734375,0.078125 c 0.6875,0 1.21875,-0.234375 1.59375,-0.453125 C 4.5625,-0.515625 4.6875,-0.71875 4.6875,-1.015625 V -2.125 c 0,-0.28125 -0.234375,-0.5 -0.515625,-0.5 H 3.03125 c -0.234375,0 -0.4375,0.203125 -0.4375,0.4375 0,0.25 0.203125,0.4375 0.4375,0.4375 h 0.6875 v 0.640625 c -0.265625,0.1875 -0.578125,0.28125 -0.953125,0.28125 -0.796875,0 -1.375,-0.609375 -1.375,-1.453125 0,-0.78125 0.578125,-1.421875 1.3125,-1.421875 0.421875,0 0.71875,0.109375 0.984375,0.3125 C 3.765625,-3.34375 3.859375,-3.28125 4,-3.28125 c 0.265625,0 0.484375,-0.234375 0.484375,-0.5 C 4.484375,-3.984375 4.375,-4.109375 4.28125,-4.1875 3.875,-4.46875 3.421875,-4.625 2.734375,-4.625 c -1.375,0 -2.390625,1.0625 -2.390625,2.34375 v 0.015625 c 0,1.34375 0.96875,2.34375 2.390625,2.34375 z m 0,0"
         style="stroke:none"
         inkscape:connector-curvature="0" />
    </g>
    <g
       id="use11929"
       style="fill:#ffffff;fill-opacity:1"
       transform="matrix(0.35277777,0,0,0.35277777,96.082035,105.29182)">
      <path
         id="path21726"
         d="m 0.234375,-0.421875 c 0,0.25 0.203125,0.453125 0.46875,0.453125 0.203125,0 0.375,-0.109375 0.453125,-0.296875 l 0.3125,-0.75 H 3.484375 L 3.78125,-0.3125 c 0.09375,0.21875 0.25,0.34375 0.484375,0.34375 0.265625,0 0.46875,-0.203125 0.46875,-0.46875 0,-0.0625 -0.015625,-0.140625 -0.046875,-0.203125 L 3.09375,-4.21875 C 2.984375,-4.46875 2.796875,-4.625 2.515625,-4.625 H 2.46875 c -0.28125,0 -0.484375,0.15625 -0.59375,0.40625 l -1.578125,3.578125 c -0.03125,0.0625 -0.0625,0.140625 -0.0625,0.21875 z m 1.609375,-1.484375 0.625,-1.5 0.640625,1.5 z m 0,0"
         style="stroke:none"
         inkscape:connector-curvature="0" />
    </g>
    <g
       id="use11933"
       style="fill:#ffffff;fill-opacity:1"
       transform="matrix(0.35277777,0,0,0.35277777,97.730972,105.29182)">
      <path
         id="path21714"
         d="m 1.609375,-0.46875 c 0,0.28125 0.21875,0.5 0.5,0.5 0.28125,0 0.5,-0.21875 0.5,-0.5 V -3.625 H 3.5625 c 0.265625,0 0.46875,-0.203125 0.46875,-0.46875 0,-0.25 -0.203125,-0.453125 -0.46875,-0.453125 H 0.640625 c -0.25,0 -0.453125,0.203125 -0.453125,0.453125 0,0.265625 0.203125,0.46875 0.453125,0.46875 h 0.96875 z m 0,0"
         style="stroke:none"
         inkscape:connector-curvature="0" />
    </g>
    <g
       id="use11935"
       style="fill:#ffffff;fill-opacity:1"
       transform="matrix(0.35277777,0,0,0.35277777,99.269603,105.29182)">
      <path
         id="path21718"
         d="M 1.046875,0 H 3.59375 c 0.25,0 0.453125,-0.1875 0.453125,-0.4375 0,-0.25 -0.203125,-0.453125 -0.453125,-0.453125 H 1.546875 V -1.84375 H 3.28125 c 0.234375,0 0.4375,-0.203125 0.4375,-0.4375 0,-0.25 -0.203125,-0.453125 -0.4375,-0.453125 H 1.546875 V -3.65625 H 3.5625 c 0.25,0 0.453125,-0.203125 0.453125,-0.4375 0,-0.25 -0.203125,-0.453125 -0.453125,-0.453125 H 1.046875 c -0.28125,0 -0.5,0.21875 -0.5,0.5 V -0.5 c 0,0.28125 0.21875,0.5 0.5,0.5 z m 0,0"
         style="stroke:none"
         inkscape:connector-curvature="0" />
    </g>
    <g
       id="use11939"
       style="fill:#ffffff;fill-opacity:1"
       transform="matrix(0.35277777,0,0,0.35277777,106.74474,105.29182)">
      <path
         id="path21706"
         d="m 2.328125,0.078125 h 0.0625 c 0.28125,0 0.46875,-0.15625 0.5625,-0.40625 l 1.5,-3.5625 C 4.46875,-3.953125 4.5,-4.03125 4.5,-4.109375 4.5,-4.375 4.28125,-4.59375 4,-4.59375 c -0.234375,0 -0.40625,0.15625 -0.484375,0.328125 L 2.375,-1.296875 1.234375,-4.234375 c -0.078125,-0.203125 -0.25,-0.359375 -0.5,-0.359375 -0.28125,0 -0.5,0.21875 -0.5,0.5 0,0.078125 0.015625,0.15625 0.046875,0.234375 l 1.484375,3.53125 c 0.09375,0.25 0.28125,0.40625 0.5625,0.40625 z m 0,0"
         style="stroke:none"
         inkscape:connector-curvature="0" />
    </g>
    <g
       id="use11941"
       style="fill:#ffffff;fill-opacity:1"
       transform="matrix(0.35277777,0,0,0.35277777,108.45536,105.29182)">
      <path
         id="path21710"
         d="M 1.046875,0 H 3.59375 c 0.25,0 0.453125,-0.1875 0.453125,-0.4375 0,-0.25 -0.203125,-0.453125 -0.453125,-0.453125 H 1.546875 V -1.84375 H 3.28125 c 0.234375,0 0.4375,-0.203125 0.4375,-0.4375 0,-0.25 -0.203125,-0.453125 -0.4375,-0.453125 H 1.546875 V -3.65625 H 3.5625 c 0.25,0 0.453125,-0.203125 0.453125,-0.4375 0,-0.25 -0.203125,-0.453125 -0.453125,-0.453125 H 1.046875 c -0.28125,0 -0.5,0.21875 -0.5,0.5 V -0.5 c 0,0.28125 0.21875,0.5 0.5,0.5 z m 0,0"
         style="stroke:none"
         inkscape:connector-curvature="0" />
    </g>
    <g
       id="use11945"
       style="fill:#ffffff;fill-opacity:1"
       transform="matrix(0.35277777,0,0,0.35277777,110.0722,105.29182)">
      <path
         id="path21702"
         d="m 0.546875,-0.5 c 0,0.28125 0.21875,0.5 0.5,0.5 H 3.40625 c 0.25,0 0.453125,-0.203125 0.453125,-0.453125 0,-0.25 -0.203125,-0.453125 -0.453125,-0.453125 H 1.546875 v -3.1875 c 0,-0.28125 -0.21875,-0.5 -0.5,-0.5 -0.28125,0 -0.5,0.21875 -0.5,0.5 z m 0,0"
         style="stroke:none"
         inkscape:connector-curvature="0" />
    </g>
    <path
       inkscape:connector-curvature="0"
       style="fill:#000000;fill-opacity:1;fill-rule:nonzero;stroke:none;stroke-width:0.352778"
       d="m 113.95854,135.20444 c 0,-0.54984 -0.44924,-0.99908 -1.00045,-0.99908 h -7.68119 c -0.55121,0 -1.00046,0.44924 -1.00046,0.99908 v 12.17359 c 0,0.54984 0.44925,1.00045 1.00046,1.00045 h 7.68119 c 0.55121,0 1.00045,-0.45061 1.00045,-1.00045 z m 0,0"
       id="path12157" />
    <path
       inkscape:connector-curvature="0"
       style="fill:#000000;fill-opacity:1;fill-rule:nonzero;stroke:none;stroke-width:0.352778"
       d="m 102.35822,135.20444 c 0,-0.54984 -0.44924,-0.99908 -0.99908,-0.99908 h -7.682564 c -0.549835,0 -1.000456,0.44924 -1.000456,0.99908 v 12.17359 c 0,0.54984 0.450621,1.00045 1.000456,1.00045 h 7.682564 c 0.54984,0 0.99908,-0.45061 0.99908,-1.00045 z m 0,0"
       id="path12159" />
    <path
       inkscape:connector-curvature="0"
       style="fill:#000000;fill-opacity:1;fill-rule:nonzero;stroke:none;stroke-width:0.352778"
       d="m 90.75927,135.20444 c 0,-0.54984 -0.450621,-0.99908 -1.000456,-0.99908 h -7.682561 c -0.54984,0 -0.999078,0.44924 -0.999078,0.99908 v 12.17359 c 0,0.54984 0.449238,1.00045 0.999078,1.00045 h 7.682561 c 0.549835,0 1.000456,-0.45061 1.000456,-1.00045 z m 0,0"
       id="path12161" />
    <g
       id="use12163"
       style="fill:#ffffff;fill-opacity:1"
       transform="matrix(0.35277777,0,0,0.35277777,83.482048,137.29261)">
      <path
         id="path21698"
         d="m 2.671875,0.078125 c 0.734375,0 1.21875,-0.21875 1.625,-0.578125 C 4.390625,-0.578125 4.46875,-0.703125 4.46875,-0.84375 4.46875,-1.109375 4.25,-1.3125 4,-1.3125 c -0.125,0 -0.21875,0.046875 -0.296875,0.109375 -0.296875,0.234375 -0.5625,0.359375 -1,0.359375 -0.765625,0 -1.3125,-0.65625 -1.3125,-1.4375 0,-0.78125 0.546875,-1.421875 1.3125,-1.421875 0.359375,0 0.65625,0.109375 0.9375,0.328125 0.078125,0.046875 0.15625,0.09375 0.296875,0.09375 0.28125,0 0.5,-0.21875 0.5,-0.484375 0,-0.1875 -0.09375,-0.328125 -0.203125,-0.40625 C 3.859375,-4.453125 3.40625,-4.625 2.71875,-4.625 c -1.40625,0 -2.375,1.0625 -2.375,2.34375 v 0.015625 c 0,1.3125 1,2.34375 2.328125,2.34375 z m 0,0"
         style="stroke:none"
         inkscape:connector-curvature="0" />
    </g>
    <g
       id="use12167"
       style="fill:#ffffff;fill-opacity:1"
       transform="matrix(0.35277777,0,0,0.35277777,85.246316,137.29261)">
      <path
         id="path21690"
         d="m 0.546875,-0.5 c 0,0.28125 0.21875,0.5 0.5,0.5 H 3.40625 c 0.25,0 0.453125,-0.203125 0.453125,-0.453125 0,-0.25 -0.203125,-0.453125 -0.453125,-0.453125 H 1.546875 v -3.1875 c 0,-0.28125 -0.21875,-0.5 -0.5,-0.5 -0.28125,0 -0.5,0.21875 -0.5,0.5 z m 0,0"
         style="stroke:none"
         inkscape:connector-curvature="0" />
    </g>
    <g
       id="use12169"
       style="fill:#ffffff;fill-opacity:1"
       transform="matrix(0.35277777,0,0,0.35277777,86.72076,137.29261)">
      <path
         id="path21694"
         d="m 0.546875,-0.46875 c 0,0.28125 0.21875,0.5 0.5,0.5 0.28125,0 0.5,-0.21875 0.5,-0.5 V -1.375 L 2.125,-1.90625 3.421875,-0.203125 C 3.53125,-0.0625 3.640625,0.03125 3.84375,0.03125 c 0.296875,0 0.5,-0.203125 0.5,-0.484375 0,-0.140625 -0.046875,-0.25 -0.125,-0.34375 L 2.8125,-2.546875 4.09375,-3.75 c 0.109375,-0.109375 0.1875,-0.21875 0.1875,-0.375 0,-0.25 -0.1875,-0.46875 -0.46875,-0.46875 -0.171875,0 -0.296875,0.078125 -0.421875,0.203125 L 1.546875,-2.5625 v -1.53125 c 0,-0.28125 -0.21875,-0.5 -0.5,-0.5 -0.28125,0 -0.5,0.21875 -0.5,0.5 z m 0,0"
         style="stroke:none"
         inkscape:connector-curvature="0" />
    </g>
    <g
       id="use12173"
       style="fill:#ffffff;fill-opacity:1"
       transform="matrix(0.35277777,0,0,0.35277777,93.51645,137.29261)">
      <path
         id="path21686"
         d="m 2.671875,0.078125 c 0.734375,0 1.21875,-0.21875 1.625,-0.578125 C 4.390625,-0.578125 4.46875,-0.703125 4.46875,-0.84375 4.46875,-1.109375 4.25,-1.3125 4,-1.3125 c -0.125,0 -0.21875,0.046875 -0.296875,0.109375 -0.296875,0.234375 -0.5625,0.359375 -1,0.359375 -0.765625,0 -1.3125,-0.65625 -1.3125,-1.4375 0,-0.78125 0.546875,-1.421875 1.3125,-1.421875 0.359375,0 0.65625,0.109375 0.9375,0.328125 0.078125,0.046875 0.15625,0.09375 0.296875,0.09375 0.28125,0 0.5,-0.21875 0.5,-0.484375 0,-0.1875 -0.09375,-0.328125 -0.203125,-0.40625 C 3.859375,-4.453125 3.40625,-4.625 2.71875,-4.625 c -1.40625,0 -2.375,1.0625 -2.375,2.34375 v 0.015625 c 0,1.3125 1,2.34375 2.328125,2.34375 z m 0,0"
         style="stroke:none"
         inkscape:connector-curvature="0" />
    </g>
    <g
       id="use12177"
       style="fill:#ffffff;fill-opacity:1"
       transform="matrix(0.35277777,0,0,0.35277777,95.280718,137.29261)">
      <path
         id="path21682"
         d="m 0.546875,-0.5 c 0,0.28125 0.21875,0.5 0.5,0.5 H 3.40625 c 0.25,0 0.453125,-0.203125 0.453125,-0.453125 0,-0.25 -0.203125,-0.453125 -0.453125,-0.453125 H 1.546875 v -3.1875 c 0,-0.28125 -0.21875,-0.5 -0.5,-0.5 -0.28125,0 -0.5,0.21875 -0.5,0.5 z m 0,0"
         style="stroke:none"
         inkscape:connector-curvature="0" />
    </g>
    <g
       id="use12181"
       style="fill:#ffffff;fill-opacity:1"
       transform="matrix(0.35277777,0,0,0.35277777,96.754474,137.29261)">
      <path
         id="path21678"
         d="m 0.546875,-0.46875 c 0,0.28125 0.21875,0.5 0.5,0.5 0.28125,0 0.5,-0.21875 0.5,-0.5 V -1.375 L 2.125,-1.90625 3.421875,-0.203125 C 3.53125,-0.0625 3.640625,0.03125 3.84375,0.03125 c 0.296875,0 0.5,-0.203125 0.5,-0.484375 0,-0.140625 -0.046875,-0.25 -0.125,-0.34375 L 2.8125,-2.546875 4.09375,-3.75 c 0.109375,-0.109375 0.1875,-0.21875 0.1875,-0.375 0,-0.25 -0.1875,-0.46875 -0.46875,-0.46875 -0.171875,0 -0.296875,0.078125 -0.421875,0.203125 L 1.546875,-2.5625 v -1.53125 c 0,-0.28125 -0.21875,-0.5 -0.5,-0.5 -0.28125,0 -0.5,0.21875 -0.5,0.5 z m 0,0"
         style="stroke:none"
         inkscape:connector-curvature="0" />
    </g>
    <g
       id="use12185"
       style="fill:#ffffff;fill-opacity:1"
       transform="matrix(0.35277777,0,0,0.35277777,98.462571,137.29261)">
      <path
         id="path21674"
         d="m 0.015625,0.5 c 0,0.203125 0.171875,0.375 0.390625,0.375 0.15625,0 0.265625,-0.078125 0.34375,-0.234375 l 2.53125,-5.3125 c 0.03125,-0.046875 0.046875,-0.109375 0.046875,-0.1875 0,-0.1875 -0.171875,-0.359375 -0.375,-0.359375 -0.15625,0 -0.28125,0.078125 -0.34375,0.21875 L 0.0625,0.3125 C 0.046875,0.359375 0.015625,0.421875 0.015625,0.5 Z m 0,0"
         style="stroke:none"
         inkscape:connector-curvature="0" />
    </g>
    <g
       id="use12189"
       style="fill:#ffffff;fill-opacity:1"
       transform="matrix(0.35277777,0,0,0.35277777,99.706562,137.29261)">
      <path
         id="path21670"
         d="m 0.546875,-0.453125 c 0,0.265625 0.21875,0.484375 0.5,0.484375 0.265625,0 0.484375,-0.21875 0.484375,-0.484375 v -2.4375 l 2,2.625 C 3.671875,-0.09375 3.8125,0.03125 4.0625,0.03125 h 0.03125 c 0.28125,0 0.5,-0.21875 0.5,-0.5 v -3.625 c 0,-0.28125 -0.21875,-0.5 -0.5,-0.5 -0.265625,0 -0.5,0.21875 -0.5,0.5 V -1.75 L 1.671875,-4.28125 C 1.53125,-4.453125 1.390625,-4.578125 1.15625,-4.578125 H 1.046875 c -0.28125,0 -0.5,0.21875 -0.5,0.5 z m 0,0"
         style="stroke:none"
         inkscape:connector-curvature="0" />
    </g>
    <g
       id="use12193"
       style="fill:#ffffff;fill-opacity:1"
       transform="matrix(0.35277777,0,0,0.35277777,105.73385,137.29261)">
      <path
         id="path21666"
         d="m 0.546875,-0.46875 c 0,0.28125 0.21875,0.5 0.5,0.5 0.28125,0 0.5,-0.21875 0.5,-0.5 V -1.453125 H 2.34375 l 0.984375,1.234375 c 0.109375,0.140625 0.265625,0.25 0.484375,0.25 0.25,0 0.484375,-0.171875 0.484375,-0.453125 C 4.296875,-0.578125 4.21875,-0.6875 4.125,-0.8125 L 3.4375,-1.65625 c 0.546875,-0.21875 0.90625,-0.671875 0.90625,-1.375 v -0.015625 c 0,-0.4375 -0.140625,-0.78125 -0.390625,-1.046875 C 3.65625,-4.390625 3.203125,-4.546875 2.625,-4.546875 H 1.046875 c -0.28125,0 -0.5,0.21875 -0.5,0.5 z m 1,-1.875 v -1.296875 h 1 c 0.484375,0 0.78125,0.21875 0.78125,0.640625 v 0.015625 c 0,0.390625 -0.28125,0.640625 -0.765625,0.640625 z m 0,0"
         style="stroke:none"
         inkscape:connector-curvature="0" />
    </g>
    <g
       id="use12197"
       style="fill:#ffffff;fill-opacity:1"
       transform="matrix(0.35277777,0,0,0.35277777,107.44332,137.29261)">
      <path
         id="path21662"
         d="m 1.609375,-0.46875 c 0,0.28125 0.21875,0.5 0.5,0.5 0.28125,0 0.5,-0.21875 0.5,-0.5 V -3.625 H 3.5625 c 0.265625,0 0.46875,-0.203125 0.46875,-0.46875 0,-0.25 -0.203125,-0.453125 -0.46875,-0.453125 H 0.640625 c -0.25,0 -0.453125,0.203125 -0.453125,0.453125 0,0.265625 0.203125,0.46875 0.453125,0.46875 h 0.96875 z m 0,0"
         style="stroke:none"
         inkscape:connector-curvature="0" />
    </g>
    <g
       id="use12201"
       style="fill:#ffffff;fill-opacity:1"
       transform="matrix(0.35277777,0,0,0.35277777,108.98082,137.29261)">
      <path
         id="path21658"
         d="m 0.546875,-0.46875 c 0,0.28125 0.21875,0.5 0.5,0.5 0.28125,0 0.5,-0.21875 0.5,-0.5 V -1.453125 H 2.34375 l 0.984375,1.234375 c 0.109375,0.140625 0.265625,0.25 0.484375,0.25 0.25,0 0.484375,-0.171875 0.484375,-0.453125 C 4.296875,-0.578125 4.21875,-0.6875 4.125,-0.8125 L 3.4375,-1.65625 c 0.546875,-0.21875 0.90625,-0.671875 0.90625,-1.375 v -0.015625 c 0,-0.4375 -0.140625,-0.78125 -0.390625,-1.046875 C 3.65625,-4.390625 3.203125,-4.546875 2.625,-4.546875 H 1.046875 c -0.28125,0 -0.5,0.21875 -0.5,0.5 z m 1,-1.875 v -1.296875 h 1 c 0.484375,0 0.78125,0.21875 0.78125,0.640625 v 0.015625 c 0,0.390625 -0.28125,0.640625 -0.765625,0.640625 z m 0,0"
         style="stroke:none"
         inkscape:connector-curvature="0" />
    </g>
    <g
       id="use12205"
       style="fill:#ffffff;fill-opacity:1"
       transform="matrix(0.35277777,0,0,0.35277777,110.7013,137.29261)">
      <path
         id="path21654"
         d="m 2.734375,0.078125 c 0.6875,0 1.21875,-0.234375 1.59375,-0.453125 C 4.5625,-0.515625 4.6875,-0.71875 4.6875,-1.015625 V -2.125 c 0,-0.28125 -0.234375,-0.5 -0.515625,-0.5 H 3.03125 c -0.234375,0 -0.4375,0.203125 -0.4375,0.4375 0,0.25 0.203125,0.4375 0.4375,0.4375 h 0.6875 v 0.640625 c -0.265625,0.1875 -0.578125,0.28125 -0.953125,0.28125 -0.796875,0 -1.375,-0.609375 -1.375,-1.453125 0,-0.78125 0.578125,-1.421875 1.3125,-1.421875 0.421875,0 0.71875,0.109375 0.984375,0.3125 C 3.765625,-3.34375 3.859375,-3.28125 4,-3.28125 c 0.265625,0 0.484375,-0.234375 0.484375,-0.5 C 4.484375,-3.984375 4.375,-4.109375 4.28125,-4.1875 3.875,-4.46875 3.421875,-4.625 2.734375,-4.625 c -1.375,0 -2.390625,1.0625 -2.390625,2.34375 v 0.015625 c 0,1.34375 0.96875,2.34375 2.390625,2.34375 z m 0,0"
         style="stroke:none"
         inkscape:connector-curvature="0" />
    </g>
    <path
       inkscape:connector-curvature="0"
       style="fill:#000000;fill-opacity:1;fill-rule:nonzero;stroke:none;stroke-width:0.352778"
       d="m 113.95854,151.20484 c 0,-0.54983 -0.44924,-1.00045 -1.00045,-1.00045 h -7.68119 c -0.55121,0 -1.00046,0.45062 -1.00046,1.00045 v 12.17359 c 0,0.54846 0.44925,0.99908 1.00046,0.99908 h 7.68119 c 0.55121,0 1.00045,-0.45062 1.00045,-0.99908 z m 0,0"
       id="path12209" />
    <path
       inkscape:connector-curvature="0"
       style="fill:#000000;fill-opacity:1;fill-rule:nonzero;stroke:none;stroke-width:0.352778"
       d="m 102.35822,151.20484 c 0,-0.54983 -0.44924,-1.00045 -0.99908,-1.00045 h -7.682564 c -0.549835,0 -1.000456,0.45062 -1.000456,1.00045 v 12.17359 c 0,0.54846 0.450621,0.99908 1.000456,0.99908 h 7.682564 c 0.54984,0 0.99908,-0.45062 0.99908,-0.99908 z m 0,0"
       id="path12211" />
    <path
       inkscape:connector-curvature="0"
       style="fill:#000000;fill-opacity:1;fill-rule:nonzero;stroke:none;stroke-width:0.352778"
       d="m 90.75927,151.20484 c 0,-0.54983 -0.450621,-1.00045 -1.000456,-1.00045 h -7.682561 c -0.54984,0 -0.999078,0.45062 -0.999078,1.00045 v 12.17359 c 0,0.54846 0.449238,0.99908 0.999078,0.99908 h 7.682561 c 0.549835,0 1.000456,-0.45062 1.000456,-0.99908 z m 0,0"
       id="path12213" />
    <g
       id="use12215"
       style="fill:#ffffff;fill-opacity:1"
       transform="matrix(0.35277777,0,0,0.35277777,82.786459,153.29267)">
      <path
         id="path21650"
         d="m 2.171875,0.0625 c 0.96875,0 1.65625,-0.5 1.65625,-1.40625 v -0.015625 c 0,-0.796875 -0.515625,-1.125 -1.4375,-1.359375 -0.78125,-0.203125 -0.984375,-0.296875 -0.984375,-0.609375 0,-0.234375 0.203125,-0.40625 0.59375,-0.40625 0.3125,0 0.625,0.109375 0.953125,0.3125 0.078125,0.046875 0.15625,0.0625 0.25,0.0625 0.265625,0 0.46875,-0.203125 0.46875,-0.453125 0,-0.203125 -0.109375,-0.328125 -0.21875,-0.40625 -0.40625,-0.25 -0.890625,-0.390625 -1.4375,-0.390625 -0.9375,0 -1.59375,0.546875 -1.59375,1.359375 v 0.015625 c 0,0.90625 0.578125,1.15625 1.5,1.390625 0.765625,0.203125 0.921875,0.328125 0.921875,0.578125 V -1.25 c 0,0.265625 -0.25,0.4375 -0.65625,0.4375 -0.453125,0 -0.828125,-0.15625 -1.171875,-0.421875 -0.0625,-0.046875 -0.15625,-0.078125 -0.28125,-0.078125 -0.265625,0 -0.46875,0.1875 -0.46875,0.453125 0,0.15625 0.078125,0.296875 0.1875,0.375 0.515625,0.375 1.109375,0.546875 1.71875,0.546875 z m 0,0"
         style="stroke:none"
         inkscape:connector-curvature="0" />
    </g>
    <g
       id="use12219"
       style="fill:#ffffff;fill-opacity:1"
       transform="matrix(0.35277777,0,0,0.35277777,84.31366,153.29267)">
      <path
         id="path21638"
         d="m 1.609375,-0.46875 c 0,0.28125 0.21875,0.5 0.5,0.5 0.28125,0 0.5,-0.21875 0.5,-0.5 V -3.625 H 3.5625 c 0.265625,0 0.46875,-0.203125 0.46875,-0.46875 0,-0.25 -0.203125,-0.453125 -0.46875,-0.453125 H 0.640625 c -0.25,0 -0.453125,0.203125 -0.453125,0.453125 0,0.265625 0.203125,0.46875 0.453125,0.46875 h 0.96875 z m 0,0"
         style="stroke:none"
         inkscape:connector-curvature="0" />
    </g>
    <g
       id="use12221"
       style="fill:#ffffff;fill-opacity:1"
       transform="matrix(0.35277777,0,0,0.35277777,85.852292,153.29267)">
      <path
         id="path21642"
         d="m 0.546875,-0.46875 c 0,0.28125 0.21875,0.5 0.5,0.5 0.28125,0 0.5,-0.21875 0.5,-0.5 V -1.453125 H 2.34375 l 0.984375,1.234375 c 0.109375,0.140625 0.265625,0.25 0.484375,0.25 0.25,0 0.484375,-0.171875 0.484375,-0.453125 C 4.296875,-0.578125 4.21875,-0.6875 4.125,-0.8125 L 3.4375,-1.65625 c 0.546875,-0.21875 0.90625,-0.671875 0.90625,-1.375 v -0.015625 c 0,-0.4375 -0.140625,-0.78125 -0.390625,-1.046875 C 3.65625,-4.390625 3.203125,-4.546875 2.625,-4.546875 H 1.046875 c -0.28125,0 -0.5,0.21875 -0.5,0.5 z m 1,-1.875 v -1.296875 h 1 c 0.484375,0 0.78125,0.21875 0.78125,0.640625 v 0.015625 c 0,0.390625 -0.28125,0.640625 -0.765625,0.640625 z m 0,0"
         style="stroke:none"
         inkscape:connector-curvature="0" />
    </g>
    <g
       id="use12223"
       style="fill:#ffffff;fill-opacity:1"
       transform="matrix(0.35277777,0,0,0.35277777,87.562902,153.29267)">
      <path
         id="path21646"
         d="m 1.609375,-0.46875 c 0,0.28125 0.21875,0.5 0.5,0.5 0.28125,0 0.5,-0.21875 0.5,-0.5 V -3.625 H 3.5625 c 0.265625,0 0.46875,-0.203125 0.46875,-0.46875 0,-0.25 -0.203125,-0.453125 -0.46875,-0.453125 H 0.640625 c -0.25,0 -0.453125,0.203125 -0.453125,0.453125 0,0.265625 0.203125,0.46875 0.453125,0.46875 h 0.96875 z m 0,0"
         style="stroke:none"
         inkscape:connector-curvature="0" />
    </g>
    <g
       id="use12227"
       style="fill:#ffffff;fill-opacity:1"
       transform="matrix(0.35277777,0,0,0.35277777,94.235693,153.29267)">
      <path
         id="path21634"
         d="m 2.171875,0.0625 c 0.96875,0 1.65625,-0.5 1.65625,-1.40625 v -0.015625 c 0,-0.796875 -0.515625,-1.125 -1.4375,-1.359375 -0.78125,-0.203125 -0.984375,-0.296875 -0.984375,-0.609375 0,-0.234375 0.203125,-0.40625 0.59375,-0.40625 0.3125,0 0.625,0.109375 0.953125,0.3125 0.078125,0.046875 0.15625,0.0625 0.25,0.0625 0.265625,0 0.46875,-0.203125 0.46875,-0.453125 0,-0.203125 -0.109375,-0.328125 -0.21875,-0.40625 -0.40625,-0.25 -0.890625,-0.390625 -1.4375,-0.390625 -0.9375,0 -1.59375,0.546875 -1.59375,1.359375 v 0.015625 c 0,0.90625 0.578125,1.15625 1.5,1.390625 0.765625,0.203125 0.921875,0.328125 0.921875,0.578125 V -1.25 c 0,0.265625 -0.25,0.4375 -0.65625,0.4375 -0.453125,0 -0.828125,-0.15625 -1.171875,-0.421875 -0.0625,-0.046875 -0.15625,-0.078125 -0.28125,-0.078125 -0.265625,0 -0.46875,0.1875 -0.46875,0.453125 0,0.15625 0.078125,0.296875 0.1875,0.375 0.515625,0.375 1.109375,0.546875 1.71875,0.546875 z m 0,0"
         style="stroke:none"
         inkscape:connector-curvature="0" />
    </g>
    <g
       id="use12231"
       style="fill:#ffffff;fill-opacity:1"
       transform="matrix(0.35277777,0,0,0.35277777,95.762868,153.29267)">
      <path
         id="path21626"
         d="m 1.609375,-0.46875 c 0,0.28125 0.21875,0.5 0.5,0.5 0.28125,0 0.5,-0.21875 0.5,-0.5 V -3.625 H 3.5625 c 0.265625,0 0.46875,-0.203125 0.46875,-0.46875 0,-0.25 -0.203125,-0.453125 -0.46875,-0.453125 H 0.640625 c -0.25,0 -0.453125,0.203125 -0.453125,0.453125 0,0.265625 0.203125,0.46875 0.453125,0.46875 h 0.96875 z m 0,0"
         style="stroke:none"
         inkscape:connector-curvature="0" />
    </g>
    <g
       id="use12233"
       style="fill:#ffffff;fill-opacity:1"
       transform="matrix(0.35277777,0,0,0.35277777,97.244191,153.29267)">
      <path
         id="path21630"
         d="m 2.75,0.078125 c 1.40625,0 2.4375,-1.0625 2.4375,-2.359375 0,-1.296875 -1.015625,-2.34375 -2.421875,-2.34375 -1.40625,0 -2.421875,1.0625 -2.421875,2.34375 v 0.015625 c 0,1.296875 1.015625,2.34375 2.40625,2.34375 z M 2.765625,-0.84375 c -0.796875,0 -1.375,-0.65625 -1.375,-1.4375 0,-0.78125 0.5625,-1.421875 1.359375,-1.421875 0.8125,0 1.390625,0.640625 1.390625,1.421875 v 0.015625 c 0,0.78125 -0.5625,1.421875 -1.375,1.421875 z m 0,0"
         style="stroke:none"
         inkscape:connector-curvature="0" />
    </g>
    <g
       id="use12237"
       style="fill:#ffffff;fill-opacity:1"
       transform="matrix(0.35277777,0,0,0.35277777,99.268492,153.29267)">
      <path
         id="path21622"
         d="m 0.546875,-0.46875 c 0,0.28125 0.21875,0.5 0.5,0.5 0.28125,0 0.5,-0.21875 0.5,-0.5 V -1.359375 H 2.3125 c 1.015625,0 1.828125,-0.546875 1.828125,-1.609375 v -0.015625 c 0,-0.921875 -0.65625,-1.5625 -1.734375,-1.5625 H 1.046875 c -0.28125,0 -0.5,0.21875 -0.5,0.5 z m 1,-1.78125 v -1.390625 h 0.78125 c 0.5,0 0.8125,0.234375 0.8125,0.6875 V -2.9375 c 0,0.390625 -0.296875,0.6875 -0.796875,0.6875 z m 0,0"
         style="stroke:none"
         inkscape:connector-curvature="0" />
    </g>
    <g
       id="use12241"
       style="fill:#ffffff;fill-opacity:1"
       transform="matrix(0.35277777,0,0,0.35277777,105.56798,153.29267)">
      <path
         id="path21614"
         d="m 2.671875,0.078125 c 0.734375,0 1.21875,-0.21875 1.625,-0.578125 C 4.390625,-0.578125 4.46875,-0.703125 4.46875,-0.84375 4.46875,-1.109375 4.25,-1.3125 4,-1.3125 c -0.125,0 -0.21875,0.046875 -0.296875,0.109375 -0.296875,0.234375 -0.5625,0.359375 -1,0.359375 -0.765625,0 -1.3125,-0.65625 -1.3125,-1.4375 0,-0.78125 0.546875,-1.421875 1.3125,-1.421875 0.359375,0 0.65625,0.109375 0.9375,0.328125 0.078125,0.046875 0.15625,0.09375 0.296875,0.09375 0.28125,0 0.5,-0.21875 0.5,-0.484375 0,-0.1875 -0.09375,-0.328125 -0.203125,-0.40625 C 3.859375,-4.453125 3.40625,-4.625 2.71875,-4.625 c -1.40625,0 -2.375,1.0625 -2.375,2.34375 v 0.015625 c 0,1.3125 1,2.34375 2.328125,2.34375 z m 0,0"
         style="stroke:none"
         inkscape:connector-curvature="0" />
    </g>
    <g
       id="use12243"
       style="fill:#ffffff;fill-opacity:1"
       transform="matrix(0.35277777,0,0,0.35277777,107.29465,153.29267)">
      <path
         id="path21618"
         d="m 2.75,0.078125 c 1.40625,0 2.4375,-1.0625 2.4375,-2.359375 0,-1.296875 -1.015625,-2.34375 -2.421875,-2.34375 -1.40625,0 -2.421875,1.0625 -2.421875,2.34375 v 0.015625 c 0,1.296875 1.015625,2.34375 2.40625,2.34375 z M 2.765625,-0.84375 c -0.796875,0 -1.375,-0.65625 -1.375,-1.4375 0,-0.78125 0.5625,-1.421875 1.359375,-1.421875 0.8125,0 1.390625,0.640625 1.390625,1.421875 v 0.015625 c 0,0.78125 -0.5625,1.421875 -1.375,1.421875 z m 0,0"
         style="stroke:none"
         inkscape:connector-curvature="0" />
    </g>
    <g
       id="use12247"
       style="fill:#ffffff;fill-opacity:1"
       transform="matrix(0.35277777,0,0,0.35277777,109.31896,153.29267)">
      <path
         id="path21610"
         d="m 0.546875,-0.453125 c 0,0.265625 0.21875,0.484375 0.5,0.484375 0.265625,0 0.484375,-0.21875 0.484375,-0.484375 v -2.4375 l 2,2.625 C 3.671875,-0.09375 3.8125,0.03125 4.0625,0.03125 h 0.03125 c 0.28125,0 0.5,-0.21875 0.5,-0.5 v -3.625 c 0,-0.28125 -0.21875,-0.5 -0.5,-0.5 -0.265625,0 -0.5,0.21875 -0.5,0.5 V -1.75 L 1.671875,-4.28125 C 1.53125,-4.453125 1.390625,-4.578125 1.15625,-4.578125 H 1.046875 c -0.28125,0 -0.5,0.21875 -0.5,0.5 z m 0,0"
         style="stroke:none"
         inkscape:connector-curvature="0" />
    </g>
    <g
       id="use12251"
       style="fill:#ffffff;fill-opacity:1"
       transform="matrix(0.35277777,0,0,0.35277777,111.18276,153.29267)">
      <path
         id="path21606"
         d="m 1.609375,-0.46875 c 0,0.28125 0.21875,0.5 0.5,0.5 0.28125,0 0.5,-0.21875 0.5,-0.5 V -3.625 H 3.5625 c 0.265625,0 0.46875,-0.203125 0.46875,-0.46875 0,-0.25 -0.203125,-0.453125 -0.46875,-0.453125 H 0.640625 c -0.25,0 -0.453125,0.203125 -0.453125,0.453125 0,0.265625 0.203125,0.46875 0.453125,0.46875 h 0.96875 z m 0,0"
         style="stroke:none"
         inkscape:connector-curvature="0" />
    </g>
    <g
       id="use14349"
       style="fill:#ffd714;fill-opacity:1"
       transform="matrix(0.35277777,0,0,0.35277777,96.932618,86.379255)">
      <path
         id="path21588"
         d=""
         style="stroke:none"
         inkscape:connector-curvature="0" />
    </g>
    <g
       id="use14383"
       style="fill:#ffd714;fill-opacity:1"
       transform="matrix(0.35277777,0,0,0.35277777,95.027618,76.936593)">
      <path
         id="path21540"
         d=""
         style="stroke:none"
         inkscape:connector-curvature="0" />
    </g>
    <g
       id="use14423"
       style="fill:#ffd714;fill-opacity:1"
       transform="matrix(0.35277777,0,0,0.35277777,91.217618,67.603506)">
      <path
         id="path21496"
         d=""
         style="stroke:none"
         inkscape:connector-curvature="0" />
    </g>
  </g>
  <g
     inkscape:groupmode="layer"
     id="layer2"
     inkscape:label="blanking"
     style="display:inline">
    <rect
       style="fill:#e6e6e6;fill-opacity:1;stroke-width:0.686901"
       id="rect1107"
       width="37.856167"
       height="50.650383"
       x="1.4911551"
       y="2.3418782" />
    <rect
       style="fill:#e6e6e6;fill-opacity:1;stroke-width:0.271713"
       id="rect1111"
       width="38.371868"
       height="8.5010729"
       x="0.94494045"
       y="119.24365" />
  </g>
  <g
     inkscape:groupmode="layer"
     id="layer3"
     inkscape:label="ODDSound"
     style="display:inline;mix-blend-mode:normal">
    <g
       aria-label="ODDSOUND"
       id="text1119"
       style="font-style:normal;font-weight:normal;font-size:4.23333px;line-height:1.25;font-family:sans-serif;fill:#000000;fill-opacity:1;stroke:none;stroke-width:0.264583"
       transform="translate(0,-1.5119048)">
      <path
         d="m 8.8964442,124.46835 c 0.9313326,0 1.6213658,-0.6477 1.6213658,-1.53247 0,-0.88476 -0.6900332,-1.53246 -1.6213658,-1.53246 -0.9355658,0 -1.6213653,0.65193 -1.6213653,1.53246 0,0.88054 0.6857995,1.53247 1.6213653,1.53247 z m 0,-0.5842 c -0.5291662,0 -0.9270992,-0.38523 -0.9270992,-0.94827 0,-0.56303 0.397933,-0.94826 0.9270992,-0.94826 0.5291663,0 0.9270993,0.38523 0.9270993,0.94826 0,0.56304 -0.397933,0.94827 -0.9270993,0.94827 z"
         style="font-style:normal;font-variant:normal;font-weight:bold;font-stretch:normal;font-size:4.23333px;font-family:Montserrat;-inkscape-font-specification:'Montserrat, Bold';font-variant-ligatures:normal;font-variant-caps:normal;font-variant-numeric:normal;font-variant-east-asian:normal;fill:#be8f57;fill-opacity:1"
         id="path1143" />
      <path
         d="m 11.033217,124.41755 h 1.346199 c 0.969433,0 1.634066,-0.5842 1.634066,-1.48167 0,-0.89746 -0.664633,-1.48166 -1.634066,-1.48166 h -1.346199 z m 0.6858,-0.56303 v -1.83727 h 0.626533 c 0.588433,0 0.973666,0.35137 0.973666,0.91863 0,0.56727 -0.385233,0.91864 -0.973666,0.91864 z"
         style="font-style:normal;font-variant:normal;font-weight:bold;font-stretch:normal;font-size:4.23333px;font-family:Montserrat;-inkscape-font-specification:'Montserrat, Bold';font-variant-ligatures:normal;font-variant-caps:normal;font-variant-numeric:normal;font-variant-east-asian:normal;fill:#be8f57;fill-opacity:1"
         id="path1145" />
      <path
         d="m 14.530676,124.41755 h 1.346199 c 0.969432,0 1.634065,-0.5842 1.634065,-1.48167 0,-0.89746 -0.664633,-1.48166 -1.634065,-1.48166 h -1.346199 z m 0.685799,-0.56303 v -1.83727 h 0.626533 c 0.588433,0 0.973666,0.35137 0.973666,0.91863 0,0.56727 -0.385233,0.91864 -0.973666,0.91864 z"
         style="font-style:normal;font-variant:normal;font-weight:bold;font-stretch:normal;font-size:4.23333px;font-family:Montserrat;-inkscape-font-specification:'Montserrat, Bold';font-variant-ligatures:normal;font-variant-caps:normal;font-variant-numeric:normal;font-variant-east-asian:normal;fill:#be8f57;fill-opacity:1"
         id="path1147" />
      <path
         d="m 19.001799,124.46835 c 0.846666,0 1.257299,-0.42333 1.257299,-0.91863 0,-1.08797 -1.722965,-0.7112 -1.722965,-1.2573 0,-0.18627 0.156633,-0.33867 0.563033,-0.33867 0.262466,0 0.546099,0.0762 0.821266,0.23283 l 0.211666,-0.5207 c -0.275166,-0.17356 -0.656166,-0.26246 -1.028699,-0.26246 -0.842433,0 -1.248832,0.4191 -1.248832,0.92286 0,1.10067 1.722965,0.71967 1.722965,1.27424 0,0.18203 -0.1651,0.3175 -0.5715,0.3175 -0.355599,0 -0.728132,-0.127 -0.977899,-0.30904 l -0.232833,0.51647 c 0.262466,0.2032 0.736599,0.3429 1.206499,0.3429 z"
         style="font-style:normal;font-variant:normal;font-weight:bold;font-stretch:normal;font-size:4.23333px;font-family:Montserrat;-inkscape-font-specification:'Montserrat, Bold';font-variant-ligatures:normal;font-variant-caps:normal;font-variant-numeric:normal;font-variant-east-asian:normal;fill:#4ca0df;fill-opacity:1"
         id="path1149" />
      <path
         d="m 22.166941,124.46835 c 0.931332,0 1.621365,-0.6477 1.621365,-1.53247 0,-0.88476 -0.690033,-1.53246 -1.621365,-1.53246 -0.935566,0 -1.621366,0.65193 -1.621366,1.53246 0,0.88054 0.6858,1.53247 1.621366,1.53247 z m 0,-0.5842 c -0.529167,0 -0.9271,-0.38523 -0.9271,-0.94827 0,-0.56303 0.397933,-0.94826 0.9271,-0.94826 0.529166,0 0.927099,0.38523 0.927099,0.94826 0,0.56304 -0.397933,0.94827 -0.927099,0.94827 z"
         style="font-style:normal;font-variant:normal;font-weight:bold;font-stretch:normal;font-size:4.23333px;font-family:Montserrat;-inkscape-font-specification:'Montserrat, Bold';font-variant-ligatures:normal;font-variant-caps:normal;font-variant-numeric:normal;font-variant-east-asian:normal;fill:#4ca0df;fill-opacity:1"
         id="path1151" />
      <path
         d="m 25.62028,124.46835 c 0.842433,0 1.341966,-0.4826 1.341966,-1.35467 v -1.65946 h -0.677333 v 1.63406 c 0,0.56304 -0.2413,0.79587 -0.6604,0.79587 -0.414866,0 -0.660399,-0.23283 -0.660399,-0.79587 v -1.63406 h -0.685799 v 1.65946 c 0,0.87207 0.499532,1.35467 1.341965,1.35467 z"
         style="font-style:normal;font-variant:normal;font-weight:bold;font-stretch:normal;font-size:4.23333px;font-family:Montserrat;-inkscape-font-specification:'Montserrat, Bold';font-variant-ligatures:normal;font-variant-caps:normal;font-variant-numeric:normal;font-variant-east-asian:normal;fill:#4ca0df;fill-opacity:1"
         id="path1153" />
      <path
         d="m 29.676272,121.45422 v 1.79916 l -1.473199,-1.79916 h -0.567266 v 2.96333 h 0.677333 v -1.79917 l 1.477432,1.79917 h 0.563033 v -2.96333 z"
         style="font-style:normal;font-variant:normal;font-weight:bold;font-stretch:normal;font-size:4.23333px;font-family:Montserrat;-inkscape-font-specification:'Montserrat, Bold';font-variant-ligatures:normal;font-variant-caps:normal;font-variant-numeric:normal;font-variant-east-asian:normal;fill:#4ca0df;fill-opacity:1"
         id="path1155" />
      <path
         d="m 31.058851,124.41755 h 1.346199 c 0.969432,0 1.634065,-0.5842 1.634065,-1.48167 0,-0.89746 -0.664633,-1.48166 -1.634065,-1.48166 h -1.346199 z m 0.685799,-0.56303 v -1.83727 h 0.626533 c 0.588433,0 0.973666,0.35137 0.973666,0.91863 0,0.56727 -0.385233,0.91864 -0.973666,0.91864 z"
         style="font-style:normal;font-variant:normal;font-weight:bold;font-stretch:normal;font-size:4.23333px;font-family:Montserrat;-inkscape-font-specification:'Montserrat, Bold';font-variant-ligatures:normal;font-variant-caps:normal;font-variant-numeric:normal;font-variant-east-asian:normal;fill:#4ca0df;fill-opacity:1"
         id="path1157" />
    </g>
    <g
       aria-label="MIDI-CV MTS-ESP"
       id="text1094"
       style="font-style:normal;font-variant:normal;font-weight:bold;font-stretch:normal;font-size:4.23333px;line-height:1.1;font-family:Montserrat;-inkscape-font-specification:'Montserrat, Bold';font-variant-ligatures:normal;font-variant-caps:normal;font-variant-numeric:normal;font-variant-east-asian:normal;fill:#000000;fill-opacity:1;stroke:none;stroke-width:0.264583"
       transform="translate(0,-0.3779762)">
      <path
         d="m 14.779224,7.5040364 -0.0085,-2.9633308 H 14.207725 L 13.115526,6.382204 12.006393,4.5407056 h -0.567266 v 2.9633308 h 0.643466 V 5.7641379 L 12.950426,7.19077 h 0.309033 l 0.872066,-1.4647321 0.0042,1.7779985 z"
         style="font-style:normal;font-variant:normal;font-weight:bold;font-stretch:normal;font-size:4.23333px;font-family:Montserrat;-inkscape-font-specification:'Montserrat, Bold';font-variant-ligatures:normal;font-variant-caps:normal;font-variant-numeric:normal;font-variant-east-asian:normal;text-align:center;text-anchor:middle;stroke-width:0.264583"
         id="path1181" />
      <path
         d="m 15.482288,7.5040364 h 0.685799 V 4.5407056 h -0.685799 z"
         style="font-style:normal;font-variant:normal;font-weight:bold;font-stretch:normal;font-size:4.23333px;font-family:Montserrat;-inkscape-font-specification:'Montserrat, Bold';font-variant-ligatures:normal;font-variant-caps:normal;font-variant-numeric:normal;font-variant-east-asian:normal;text-align:center;text-anchor:middle;stroke-width:0.264583"
         id="path1183" />
      <path
         d="m 16.871349,7.5040364 h 1.346199 c 0.969432,0 1.634065,-0.5841995 1.634065,-1.4816654 0,-0.8974659 -0.664633,-1.4816654 -1.634065,-1.4816654 h -1.346199 z m 0.6858,-0.5630328 V 5.1037384 h 0.626532 c 0.588433,0 0.973666,0.3513664 0.973666,0.9186326 0,0.5672662 -0.385233,0.9186326 -0.973666,0.9186326 z"
         style="font-style:normal;font-variant:normal;font-weight:bold;font-stretch:normal;font-size:4.23333px;font-family:Montserrat;-inkscape-font-specification:'Montserrat, Bold';font-variant-ligatures:normal;font-variant-caps:normal;font-variant-numeric:normal;font-variant-east-asian:normal;text-align:center;text-anchor:middle;stroke-width:0.264583"
         id="path1185" />
      <path
         d="m 20.368807,7.5040364 h 0.685799 V 4.5407056 h -0.685799 z"
         style="font-style:normal;font-variant:normal;font-weight:bold;font-stretch:normal;font-size:4.23333px;font-family:Montserrat;-inkscape-font-specification:'Montserrat, Bold';font-variant-ligatures:normal;font-variant-caps:normal;font-variant-numeric:normal;font-variant-east-asian:normal;text-align:center;text-anchor:middle;stroke-width:0.264583"
         id="path1187" />
      <path
         d="m 21.626635,6.5769372 h 1.198032 V 6.047771 h -1.198032 z"
         style="font-style:normal;font-variant:normal;font-weight:bold;font-stretch:normal;font-size:4.23333px;font-family:Montserrat;-inkscape-font-specification:'Montserrat, Bold';font-variant-ligatures:normal;font-variant-caps:normal;font-variant-numeric:normal;font-variant-east-asian:normal;text-align:center;text-anchor:middle;stroke-width:0.264583"
         id="path1189" />
      <path
         d="m 24.829678,7.5548364 c 0.516466,0 0.944033,-0.1862665 1.223432,-0.5291662 L 25.612844,6.6192705 c -0.198966,0.2328331 -0.448733,0.3513664 -0.745066,0.3513664 -0.554566,0 -0.948266,-0.3894664 -0.948266,-0.9482659 0,-0.5587995 0.3937,-0.9482659 0.948266,-0.9482659 0.296333,0 0.5461,0.1185333 0.745066,0.3471331 L 26.05311,5.0148385 C 25.773711,4.6761721 25.346144,4.4899056 24.833911,4.4899056 c -0.922865,0 -1.608665,0.6392328 -1.608665,1.5324654 0,0.8932326 0.6858,1.5324654 1.604432,1.5324654 z"
         style="font-style:normal;font-variant:normal;font-weight:bold;font-stretch:normal;font-size:4.23333px;font-family:Montserrat;-inkscape-font-specification:'Montserrat, Bold';font-variant-ligatures:normal;font-variant-caps:normal;font-variant-numeric:normal;font-variant-east-asian:normal;text-align:center;text-anchor:middle;stroke-width:0.264583"
         id="path1191" />
      <path
         d="m 28.663025,4.5407056 -0.914399,2.1166649 -0.9017,-2.1166649 h -0.740832 l 1.278465,2.9633308 h 0.677333 l 1.282699,-2.9633308 z"
         style="font-style:normal;font-variant:normal;font-weight:bold;font-stretch:normal;font-size:4.23333px;font-family:Montserrat;-inkscape-font-specification:'Montserrat, Bold';font-variant-ligatures:normal;font-variant-caps:normal;font-variant-numeric:normal;font-variant-east-asian:normal;text-align:center;text-anchor:middle;stroke-width:0.264583"
         id="path1193" />
      <path
         d="M 14.047487,12.160699 14.03902,9.1973684 H 13.475987 L 12.383788,11.038867 11.274656,9.1973684 H 10.70739 v 2.9633306 h 0.643466 v -1.739898 l 0.867832,1.426632 h 0.309033 l 0.872066,-1.464732 0.0042,1.777998 z"
         style="font-style:normal;font-variant:normal;font-weight:bold;font-stretch:normal;font-size:4.23333px;font-family:Montserrat;-inkscape-font-specification:'Montserrat, Bold';font-variant-ligatures:normal;font-variant-caps:normal;font-variant-numeric:normal;font-variant-east-asian:normal;text-align:center;text-anchor:middle;stroke-width:0.264583"
         id="path1195" />
      <path
         d="m 15.364383,12.160699 h 0.685799 V 9.756168 h 0.948266 V 9.1973684 H 14.416117 V 9.756168 h 0.948266 z"
         style="font-style:normal;font-variant:normal;font-weight:bold;font-stretch:normal;font-size:4.23333px;font-family:Montserrat;-inkscape-font-specification:'Montserrat, Bold';font-variant-ligatures:normal;font-variant-caps:normal;font-variant-numeric:normal;font-variant-east-asian:normal;text-align:center;text-anchor:middle;stroke-width:0.264583"
         id="path1197" />
      <path
         d="m 18.312169,12.211499 c 0.846666,0 1.257299,-0.423333 1.257299,-0.918632 0,-1.087966 -1.722965,-0.7112 -1.722965,-1.257299 0,-0.1862668 0.156633,-0.3386667 0.563033,-0.3386667 0.262466,0 0.5461,0.0762 0.821266,0.2328332 L 19.442468,9.4090349 C 19.167302,9.2354684 18.786302,9.1465685 18.413769,9.1465685 c -0.842432,0 -1.248832,0.4190996 -1.248832,0.9228655 0,1.100666 1.722965,0.719666 1.722965,1.274233 0,0.182033 -0.1651,0.317499 -0.571499,0.317499 -0.3556,0 -0.728133,-0.127 -0.977899,-0.309033 L 17.10567,11.8686 c 0.262467,0.203199 0.7366,0.342899 1.206499,0.342899 z"
         style="font-style:normal;font-variant:normal;font-weight:bold;font-stretch:normal;font-size:4.23333px;font-family:Montserrat;-inkscape-font-specification:'Montserrat, Bold';font-variant-ligatures:normal;font-variant-caps:normal;font-variant-numeric:normal;font-variant-east-asian:normal;text-align:center;text-anchor:middle;stroke-width:0.264583"
         id="path1199" />
      <path
         d="m 19.968857,11.2336 h 1.198032 v -0.529166 h -1.198032 z"
         style="font-style:normal;font-variant:normal;font-weight:bold;font-stretch:normal;font-size:4.23333px;font-family:Montserrat;-inkscape-font-specification:'Montserrat, Bold';font-variant-ligatures:normal;font-variant-caps:normal;font-variant-numeric:normal;font-variant-east-asian:normal;text-align:center;text-anchor:middle;stroke-width:0.264583"
         id="path1201" />
      <path
         d="m 22.418764,11.610366 v -0.685799 h 1.375832 v -0.5334 H 22.418764 V 9.7477013 h 1.557865 V 9.1973684 h -2.239431 v 2.9633306 h 2.294464 v -0.550333 z"
         style="font-style:normal;font-variant:normal;font-weight:bold;font-stretch:normal;font-size:4.23333px;font-family:Montserrat;-inkscape-font-specification:'Montserrat, Bold';font-variant-ligatures:normal;font-variant-caps:normal;font-variant-numeric:normal;font-variant-east-asian:normal;text-align:center;text-anchor:middle;stroke-width:0.264583"
         id="path1203" />
      <path
         d="m 25.555132,12.211499 c 0.846666,0 1.257299,-0.423333 1.257299,-0.918632 0,-1.087966 -1.722965,-0.7112 -1.722965,-1.257299 0,-0.1862668 0.156633,-0.3386667 0.563033,-0.3386667 0.262466,0 0.546099,0.0762 0.821266,0.2328332 L 26.685431,9.4090349 C 26.410265,9.2354684 26.029265,9.1465685 25.656732,9.1465685 c -0.842432,0 -1.248832,0.4190996 -1.248832,0.9228655 0,1.100666 1.722965,0.719666 1.722965,1.274233 0,0.182033 -0.1651,0.317499 -0.571499,0.317499 -0.3556,0 -0.728133,-0.127 -0.9779,-0.309033 L 24.348633,11.8686 c 0.262467,0.203199 0.7366,0.342899 1.206499,0.342899 z"
         style="font-style:normal;font-variant:normal;font-weight:bold;font-stretch:normal;font-size:4.23333px;font-family:Montserrat;-inkscape-font-specification:'Montserrat, Bold';font-variant-ligatures:normal;font-variant-caps:normal;font-variant-numeric:normal;font-variant-east-asian:normal;text-align:center;text-anchor:middle;stroke-width:0.264583"
         id="path1205" />
      <path
         d="m 28.567874,9.1973684 h -1.282699 v 2.9633306 h 0.685799 v -0.817032 h 0.5969 c 0.791633,0 1.286932,-0.410633 1.286932,-1.071033 0,-0.6646326 -0.495299,-1.0752656 -1.286932,-1.0752656 z m -0.0381,1.5874986 h -0.5588 V 9.756168 h 0.5588 c 0.4191,0 0.630766,0.1904998 0.630766,0.516466 0,0.321733 -0.211666,0.512233 -0.630766,0.512233 z"
         style="font-style:normal;font-variant:normal;font-weight:bold;font-stretch:normal;font-size:4.23333px;font-family:Montserrat;-inkscape-font-specification:'Montserrat, Bold';font-variant-ligatures:normal;font-variant-caps:normal;font-variant-numeric:normal;font-variant-east-asian:normal;text-align:center;text-anchor:middle;stroke-width:0.264583"
         id="path1207" />
    </g>
    <g
       aria-label="FROM DEVICE"
       id="text1115"
       style="font-style:normal;font-weight:normal;font-size:3.175px;line-height:1.25;font-family:sans-serif;fill:#000000;fill-opacity:1;stroke:none;stroke-width:0.264583">
      <path
         d="M 10.486459,49.743963 V 49.397888 H 8.8640344 v 2.2225 h 0.4127499 v -0.8509 h 1.0731497 v -0.34925 H 9.2767843 v -0.676275 z"
         style="font-style:normal;font-variant:normal;font-weight:600;font-stretch:normal;font-size:3.175px;font-family:Montserrat;-inkscape-font-specification:'Montserrat Semi-Bold';text-align:center;text-anchor:middle;stroke-width:0.264583"
         id="path1160" />
      <path
         d="m 12.784266,51.620388 -0.511175,-0.73025 c 0.301625,-0.117475 0.473075,-0.365125 0.473075,-0.701675 0,-0.492125 -0.36195,-0.790575 -0.94615,-0.790575 h -0.9144 v 2.2225 h 0.41275 v -0.6477 h 0.50165 c 0.02858,0 0.05715,0 0.08573,-0.0032 l 0.454025,0.650875 z m -0.454025,-1.431925 c 0,0.2794 -0.187325,0.4445 -0.549275,0.4445 h -0.4826 v -0.885825 h 0.4826 c 0.36195,0 0.549275,0.161925 0.549275,0.441325 z"
         style="font-style:normal;font-variant:normal;font-weight:600;font-stretch:normal;font-size:3.175px;font-family:Montserrat;-inkscape-font-specification:'Montserrat Semi-Bold';text-align:center;text-anchor:middle;stroke-width:0.264583"
         id="path1162" />
      <path
         d="m 14.24308,51.652138 c 0.688975,0 1.196975,-0.4826 1.196975,-1.143 0,-0.6604 -0.508,-1.143 -1.196975,-1.143 -0.688975,0 -1.196975,0.485775 -1.196975,1.143 0,0.657225 0.508,1.143 1.196975,1.143 z m 0,-0.36195 c -0.447675,0 -0.78105,-0.327025 -0.78105,-0.78105 0,-0.454025 0.333375,-0.78105 0.78105,-0.78105 0.447675,0 0.78105,0.327025 0.78105,0.78105 0,0.454025 -0.333375,0.78105 -0.78105,0.78105 z"
         style="font-style:normal;font-variant:normal;font-weight:600;font-stretch:normal;font-size:3.175px;font-family:Montserrat;-inkscape-font-specification:'Montserrat Semi-Bold';text-align:center;text-anchor:middle;stroke-width:0.264583"
         id="path1164" />
      <path
         d="m 18.309609,51.620388 -0.0032,-2.2225 h -0.339725 l -0.866775,1.4732 -0.88265,-1.4732 h -0.339725 v 2.2225 h 0.3937 v -1.45415 l 0.73025,1.20015 h 0.18415 l 0.73025,-1.2192 0.0032,1.4732 z"
         style="font-style:normal;font-variant:normal;font-weight:600;font-stretch:normal;font-size:3.175px;font-family:Montserrat;-inkscape-font-specification:'Montserrat Semi-Bold';text-align:center;text-anchor:middle;stroke-width:0.264583"
         id="path1166" />
      <path
         d="m 19.784298,51.620388 h 0.97155 c 0.720725,0 1.21285,-0.4445 1.21285,-1.11125 0,-0.66675 -0.492125,-1.11125 -1.21285,-1.11125 h -0.97155 z m 0.41275,-0.34925 v -1.524 h 0.53975 c 0.4953,0 0.815975,0.301625 0.815975,0.762 0,0.460375 -0.320675,0.762 -0.815975,0.762 z"
         style="font-style:normal;font-variant:normal;font-weight:600;font-stretch:normal;font-size:3.175px;font-family:Montserrat;-inkscape-font-specification:'Montserrat Semi-Bold';text-align:center;text-anchor:middle;stroke-width:0.264583"
         id="path1168" />
      <path
         d="m 22.820143,51.274313 v -0.612775 h 1.07315 v -0.339725 h -1.07315 v -0.57785 h 1.209675 v -0.346075 h -1.622425 v 2.2225 h 1.666875 v -0.346075 z"
         style="font-style:normal;font-variant:normal;font-weight:600;font-stretch:normal;font-size:3.175px;font-family:Montserrat;-inkscape-font-specification:'Montserrat Semi-Bold';text-align:center;text-anchor:middle;stroke-width:0.264583"
         id="path1170" />
      <path
         d="m 26.122639,49.397888 -0.746125,1.7145 -0.739775,-1.7145 h -0.447675 l 0.97155,2.2225 h 0.4064 l 0.968375,-2.2225 z"
         style="font-style:normal;font-variant:normal;font-weight:600;font-stretch:normal;font-size:3.175px;font-family:Montserrat;-inkscape-font-specification:'Montserrat Semi-Bold';text-align:center;text-anchor:middle;stroke-width:0.264583"
         id="path1172" />
      <path
         d="m 26.766817,51.620388 h 0.41275 v -2.2225 h -0.41275 z"
         style="font-style:normal;font-variant:normal;font-weight:600;font-stretch:normal;font-size:3.175px;font-family:Montserrat;-inkscape-font-specification:'Montserrat Semi-Bold';text-align:center;text-anchor:middle;stroke-width:0.264583"
         id="path1174" />
      <path
         d="m 28.806309,51.652138 c 0.365125,0 0.676275,-0.130175 0.88265,-0.371475 l -0.2667,-0.254 c -0.161925,0.1778 -0.36195,0.263525 -0.593725,0.263525 -0.460375,0 -0.79375,-0.32385 -0.79375,-0.78105 0,-0.4572 0.333375,-0.78105 0.79375,-0.78105 0.231775,0 0.4318,0.08573 0.593725,0.26035 l 0.2667,-0.250825 c -0.206375,-0.2413 -0.517525,-0.371475 -0.879475,-0.371475 -0.682625,0 -1.190625,0.479425 -1.190625,1.143 0,0.663575 0.508,1.143 1.18745,1.143 z"
         style="font-style:normal;font-variant:normal;font-weight:600;font-stretch:normal;font-size:3.175px;font-family:Montserrat;-inkscape-font-specification:'Montserrat Semi-Bold';text-align:center;text-anchor:middle;stroke-width:0.264583"
         id="path1176" />
      <path
         d="m 30.497194,51.274313 v -0.612775 h 1.07315 v -0.339725 h -1.07315 v -0.57785 h 1.209675 v -0.346075 h -1.622425 v 2.2225 h 1.666875 v -0.346075 z"
         style="font-style:normal;font-variant:normal;font-weight:600;font-stretch:normal;font-size:3.175px;font-family:Montserrat;-inkscape-font-specification:'Montserrat Semi-Bold';text-align:center;text-anchor:middle;stroke-width:0.264583"
         id="path1178" />
    </g>
  </g>
</svg>
