<?xml version="1.0" encoding="UTF-8" standalone="no"?>
<svg
   xmlns:dc="http://purl.org/dc/elements/1.1/"
   xmlns:cc="http://creativecommons.org/ns#"
   xmlns:rdf="http://www.w3.org/1999/02/22-rdf-syntax-ns#"
   xmlns:svg="http://www.w3.org/2000/svg"
   xmlns="http://www.w3.org/2000/svg"
   xmlns:sodipodi="http://sodipodi.sourceforge.net/DTD/sodipodi-0.dtd"
   xmlns:inkscape="http://www.inkscape.org/namespaces/inkscape"
   width="40.639721mm"
   height="128.50069mm"
   viewBox="0 0 40.639721 128.50069"
   version="1.1"
   id="svg25686"
   inkscape:version="1.0.2 (e86c8708, 2021-01-15)"
   sodipodi:docname="CV_MIDI_MTS_ESP.svg">
  <defs
     id="defs25680" />
  <sodipodi:namedview
     id="base"
     pagecolor="#ffffff"
     bordercolor="#666666"
     borderopacity="1.0"
     inkscape:pageopacity="0.0"
     inkscape:pageshadow="2"
     inkscape:zoom="1.4"
     inkscape:cx="-67.843384"
     inkscape:cy="196.49286"
     inkscape:document-units="mm"
     inkscape:current-layer="layer3"
     showgrid="false"
     fit-margin-top="0"
     fit-margin-left="0"
     fit-margin-right="0"
     fit-margin-bottom="0"
     inkscape:window-width="1600"
     inkscape:window-height="882"
     inkscape:window-x="0"
     inkscape:window-y="23"
     inkscape:window-maximized="0"
     inkscape:document-rotation="0" />
  <metadata
     id="metadata25683">
    <rdf:RDF>
      <cc:Work
         rdf:about="">
        <dc:format>image/svg+xml</dc:format>
        <dc:type
           rdf:resource="http://purl.org/dc/dcmitype/StillImage" />
        <dc:title />
      </cc:Work>
    </rdf:RDF>
  </metadata>
  <g
     inkscape:label="orig"
     inkscape:groupmode="layer"
     id="layer1"
     transform="translate(-311.42837,-118.49952)">
    <path
       inkscape:connector-curvature="0"
       id="path9515"
       d="m 311.5207,118.59323 h 40.45369 V 246.9065 H 311.5207 Z m 0,0"
       style="fill:#e6e6e6;fill-opacity:1;fill-rule:nonzero;stroke:none;stroke-width:0.35277775" />
    <path
       inkscape:connector-curvature="0"
       id="path9517"
       d="M 352.06809,118.49952 H 311.42837 V 247.0002 h 40.63972 z m -0.18741,128.31327 H 311.61441 V 118.68694 h 40.26627 z m 0,0"
       style="fill:#ababab;fill-opacity:1;fill-rule:nonzero;stroke:none;stroke-width:0.35277775" />
    <path
       inkscape:connector-curvature="0"
       id="path9539"
       d="m 320.14859,230.75037 h 23.19928"
       style="fill:none;stroke:#000000;stroke-width:0.35277775;stroke-linecap:butt;stroke-linejoin:miter;stroke-miterlimit:10;stroke-opacity:1" />
    <path
       inkscape:connector-curvature="0"
       id="path9541"
       d="m 320.14859,214.75136 h 23.19928"
       style="fill:none;stroke:#000000;stroke-width:0.35277775;stroke-linecap:butt;stroke-linejoin:miter;stroke-miterlimit:10;stroke-opacity:1" />
    <path
       inkscape:connector-curvature="0"
       id="path9543"
       d="m 320.14859,198.75096 h 23.19928"
       style="fill:none;stroke:#000000;stroke-width:0.35277775;stroke-linecap:butt;stroke-linejoin:miter;stroke-miterlimit:10;stroke-opacity:1" />
    <path
       inkscape:connector-curvature="0"
       id="path9545"
       d="m 320.14859,182.75055 h 23.19928"
       style="fill:none;stroke:#000000;stroke-width:0.35277775;stroke-linecap:butt;stroke-linejoin:miter;stroke-miterlimit:10;stroke-opacity:1" />
    <path
       inkscape:connector-curvature="0"
       id="path12747"
       d="m 328.9956,242.85644 c -0.11713,0 -0.22462,-0.0661 -0.27561,-0.1695 l -1.00321,-2.00504 c -0.0758,-0.15296 -0.0138,-0.33762 0.1378,-0.41479 0.15159,-0.0758 0.33762,-0.0138 0.41342,0.13918 l 0.7276,1.45245 0.72623,-1.45245 c 0.0758,-0.15296 0.26182,-0.21497 0.41341,-0.13918 0.15296,0.0772 0.21497,0.26183 0.1378,0.41479 l -1.00183,2.00504 c -0.0524,0.10336 -0.15986,0.1695 -0.27561,0.1695"
       style="fill:#000000;fill-opacity:1;fill-rule:nonzero;stroke:none;stroke-width:0.35277775" />
    <path
       inkscape:connector-curvature="0"
       id="path12749"
       d="m 334.50086,242.85644 c -0.11713,0 -0.22324,-0.0661 -0.2756,-0.1695 l -1.00322,-2.00504 c -0.0758,-0.15296 -0.0138,-0.33762 0.13919,-0.41479 0.15158,-0.0758 0.33761,-0.0138 0.41341,0.13918 l 0.72622,1.45245 0.72623,-1.45245 c 0.0758,-0.15296 0.26183,-0.21497 0.41341,-0.13918 0.15296,0.0772 0.21497,0.26183 0.13918,0.41479 l -1.00321,2.00504 c -0.0524,0.10336 -0.15847,0.1695 -0.27561,0.1695"
       style="fill:#000000;fill-opacity:1;fill-rule:nonzero;stroke:none;stroke-width:0.35277775" />
    <path
       inkscape:connector-curvature="0"
       id="path12751"
       d="m 331.89775,242.85644 c -0.72347,0 -1.31189,-0.58705 -1.31189,-1.31051 0,-0.72209 0.58842,-1.31052 1.31189,-1.31052 0.28663,0 0.5581,0.091 0.78686,0.26183 0.13505,0.10197 0.16261,0.29628 0.0606,0.4327 -0.10198,0.13505 -0.2949,0.16261 -0.43133,0.0606 -0.12126,-0.091 -0.26458,-0.13919 -0.41616,-0.13919 -0.3831,0 -0.69453,0.31145 -0.69453,0.69454 0,0.38309 0.31143,0.69453 0.69453,0.69453 0.15158,0 0.2949,-0.0482 0.41616,-0.13918 0.13643,-0.10198 0.32935,-0.0744 0.43133,0.062 0.10198,0.13505 0.0744,0.32935 -0.0606,0.43132 -0.22876,0.17088 -0.50023,0.26183 -0.78686,0.26183"
       style="fill:#000000;fill-opacity:1;fill-rule:nonzero;stroke:none;stroke-width:0.35277775" />
    <path
       inkscape:connector-curvature="0"
       id="path12753"
       d="m 332.31805,241.53077 c 0,0.22186 -0.17915,0.40101 -0.40101,0.40101 -0.22048,0 -0.39963,-0.17915 -0.39963,-0.40101 0,-0.22186 0.17915,-0.40101 0.39963,-0.40101 0.22186,0 0.40101,0.17915 0.40101,0.40101"
       style="fill:#000000;fill-opacity:1;fill-rule:nonzero;stroke:none;stroke-width:0.35277775" />
    <path
       inkscape:connector-curvature="0"
       style="fill:#000000;fill-opacity:1;stroke:none;stroke-width:0.35277775"
       d="m 324.56488,128.11472 c 0.47405,0 0.78824,-0.1378 1.05834,-0.36931 0.0551,-0.0551 0.11024,-0.13229 0.11024,-0.23703 0,-0.16536 -0.14331,-0.29765 -0.30868,-0.29765 -0.0772,0 -0.14332,0.0276 -0.19293,0.0717 -0.18741,0.14882 -0.36931,0.23151 -0.64492,0.23151 -0.50711,0 -0.85989,-0.42444 -0.85989,-0.93156 v -0.005 c 0,-0.50711 0.3638,-0.92604 0.85989,-0.92604 0.23151,0 0.42444,0.0772 0.60634,0.21497 0.0496,0.0276 0.10473,0.0606 0.19292,0.0606 0.18191,0 0.32522,-0.13781 0.32522,-0.3142 0,-0.11575 -0.0606,-0.20946 -0.12678,-0.25907 -0.24804,-0.1819 -0.5457,-0.30317 -0.99219,-0.30317 -0.9095,0 -1.5434,0.68903 -1.5434,1.53238 v 0.011 c 0,0.84887 0.64492,1.52135 1.51584,1.52135 z m 0,0"
       id="path24693" />
    <path
       inkscape:connector-curvature="0"
       style="fill:#000000;fill-opacity:1;stroke:none;stroke-width:0.35277775"
       d="m 327.48848,128.10921 h 0.0441 c 0.17639,0 0.29766,-0.0937 0.3638,-0.25356 l 0.97014,-2.32062 c 0.0165,-0.0386 0.0331,-0.0937 0.0331,-0.14331 0,-0.1819 -0.14331,-0.31419 -0.3197,-0.31419 -0.15434,0 -0.2701,0.0992 -0.3142,0.20395 l -0.74965,1.94027 -0.73863,-1.91823 c -0.0496,-0.13229 -0.15985,-0.22599 -0.33073,-0.22599 -0.18189,0 -0.32521,0.1378 -0.32521,0.3197 0,0.0551 0.0165,0.10473 0.0386,0.15985 l 0.95911,2.29857 c 0.0661,0.15985 0.19293,0.25356 0.36932,0.25356 z m 0,0"
       id="path24685" />
    <path
       inkscape:connector-curvature="0"
       style="fill:#000000;fill-opacity:1;stroke:none;stroke-width:0.35277775"
       d="m 329.46592,127.0619 h 0.73312 c 0.17087,0 0.31419,-0.1378 0.31419,-0.30868 0,-0.17088 -0.14332,-0.30868 -0.31419,-0.30868 h -0.73312 c -0.17088,0 -0.30868,0.1378 -0.30868,0.30868 0,0.17088 0.1378,0.30868 0.30868,0.30868 z m 0,0"
       id="path24689" />
    <path
       inkscape:connector-curvature="0"
       style="fill:#000000;fill-opacity:1;stroke:none;stroke-width:0.35277775"
       d="m 331.15141,127.77297 c 0,0.17639 0.1378,0.3197 0.31419,0.3197 0.17639,0 0.31971,-0.14331 0.31971,-0.3197 v -1.47174 l 0.56775,0.8654 c 0.0661,0.10473 0.14883,0.16537 0.27009,0.16537 0.11576,0 0.20396,-0.0606 0.2701,-0.16537 l 0.57327,-0.88194 v 1.47725 c 0,0.18191 0.14331,0.33073 0.3197,0.33073 0.1819,0 0.32522,-0.14882 0.32522,-0.33073 v -2.35368 c 0,-0.18191 -0.14332,-0.32522 -0.32522,-0.32522 h -0.0717 c -0.13229,0 -0.226,0.0551 -0.29214,0.16536 l -0.79375,1.28985 -0.78824,-1.28433 c -0.0551,-0.0992 -0.15434,-0.17088 -0.29214,-0.17088 h -0.0717 c -0.1819,0 -0.32522,0.14331 -0.32522,0.32522 z m 0,0"
       id="path24681" />
    <path
       inkscape:connector-curvature="0"
       style="fill:#000000;fill-opacity:1;stroke:none;stroke-width:0.35277775"
       d="m 334.89711,127.76194 c 0,0.18191 0.14332,0.33073 0.32522,0.33073 0.1819,0 0.32522,-0.14882 0.32522,-0.33073 v -2.3592 c 0,-0.1819 -0.14332,-0.32521 -0.32522,-0.32521 -0.1819,0 -0.32522,0.14331 -0.32522,0.32521 z m 0,0"
       id="path24677" />
    <path
       inkscape:connector-curvature="0"
       style="fill:#000000;fill-opacity:1;stroke:none;stroke-width:0.35277775"
       d="m 336.32625,127.7399 c 0,0.1819 0.14331,0.32521 0.32521,0.32521 h 0.82683 c 0.93155,0 1.57647,-0.65043 1.57647,-1.48277 v -0.005 c 0,-0.83784 -0.64492,-1.47725 -1.57647,-1.47725 h -0.82683 c -0.1819,0 -0.32521,0.14882 -0.32521,0.33073 z m 0.65043,-0.26459 v -1.78594 h 0.50161 c 0.53467,0 0.89296,0.36932 0.89296,0.89297 v 0.011 c 0,0.52366 -0.35829,0.88194 -0.89296,0.88194 z m 0,0"
       id="path24673" />
    <path
       inkscape:connector-curvature="0"
       style="fill:#000000;fill-opacity:1;stroke:none;stroke-width:0.35277775"
       d="m 339.67232,127.76194 c 0,0.18191 0.14331,0.33073 0.32521,0.33073 0.18191,0 0.32522,-0.14882 0.32522,-0.33073 v -2.3592 c 0,-0.1819 -0.14331,-0.32521 -0.32522,-0.32521 -0.1819,0 -0.32521,0.14331 -0.32521,0.32521 z m 0,0"
       id="path24669" />
    <path
       inkscape:connector-curvature="0"
       style="fill:#000000;fill-opacity:1;stroke:none;stroke-width:0.35277775"
       d="m 324.30975,169.93075 c 0,0.0992 0.0772,0.17639 0.17639,0.17639 0.0937,0 0.17639,-0.0772 0.17639,-0.17639 v -1.49379 h 0.47956 c 0.0882,0 0.15985,-0.0717 0.15985,-0.15986 0,-0.0882 -0.0717,-0.15985 -0.15985,-0.15985 h -1.3119 c -0.0882,0 -0.15985,0.0717 -0.15985,0.15985 0,0.0882 0.0717,0.15986 0.15985,0.15986 h 0.47956 z m 0,0"
       id="path24665" />
    <path
       inkscape:connector-curvature="0"
       style="fill:#000000;fill-opacity:1;stroke:none;stroke-width:0.35277775"
       d="m 326.5495,170.12368 c 0.60633,0 1.03628,-0.46302 1.03628,-1.01975 v -0.005 c 0,-0.55673 -0.42444,-1.01975 -1.03077,-1.01975 -0.60634,0 -1.03629,0.46853 -1.03629,1.02526 v 0.006 c 0,0.55672 0.42444,1.01423 1.03078,1.01423 z m 0.005,-0.31971 c -0.39136,0 -0.67249,-0.3197 -0.67249,-0.70004 v -0.005 c 0,-0.38585 0.27561,-0.70005 0.66698,-0.70005 0.39136,0 0.67248,0.31971 0.67248,0.70556 v 0.006 c 0,0.38033 -0.27561,0.69453 -0.66697,0.69453 z m 0,0"
       id="path24661" />
    <path
       inkscape:connector-curvature="0"
       style="fill:#000000;fill-opacity:1;stroke:none;stroke-width:0.35277775"
       d="m 328.85248,169.91422 c 0,0.0992 0.0772,0.17639 0.17639,0.17639 h 0.56224 c 0.61736,0 1.04731,-0.42995 1.04731,-0.98668 v -0.005 c 0,-0.55673 -0.42995,-0.98117 -1.04731,-0.98117 h -0.56224 c -0.0992,0 -0.17639,0.0717 -0.17639,0.17088 z m 0.34727,-0.13781 v -1.34496 h 0.39136 c 0.41341,0 0.6835,0.28663 0.6835,0.67248 v 0.006 c 0,0.38585 -0.27009,0.66697 -0.6835,0.66697 z m 0,0"
       id="path24657" />
    <path
       inkscape:connector-curvature="0"
       style="fill:#000000;fill-opacity:1;stroke:none;stroke-width:0.35277775"
       d="m 331.29709,170.09061 h 1.16307 c 0.0827,0 0.15434,-0.0661 0.15434,-0.15435 0,-0.0882 -0.0717,-0.15433 -0.15434,-0.15433 h -0.99219 v -0.53469 h 0.84887 c 0.0882,0 0.15435,-0.0661 0.15435,-0.14882 0,-0.0882 -0.0661,-0.15986 -0.15435,-0.15986 h -0.84887 v -0.51262 h 0.97565 c 0.0882,0 0.15434,-0.0661 0.15434,-0.15434 0,-0.0882 -0.0661,-0.15435 -0.15434,-0.15435 h -1.14653 c -0.0992,0 -0.17638,0.0717 -0.17638,0.17088 v 1.62609 c 0,0.0992 0.0772,0.17639 0.17638,0.17639 z m 0,0"
       id="path24649" />
    <path
       inkscape:connector-curvature="0"
       style="fill:#000000;fill-opacity:1;stroke:none;stroke-width:0.35277775"
       d="m 333.86485,170.11817 h 0.0165 c 0.0992,0 0.16537,-0.0551 0.20396,-0.13781 l 0.69453,-1.63711 c 0.005,-0.022 0.0165,-0.0496 0.0165,-0.0772 0,-0.0937 -0.0772,-0.16536 -0.17088,-0.16536 -0.0827,0 -0.14883,0.0551 -0.17088,0.11575 l -0.57878,1.43316 -0.56775,-1.42213 c -0.0276,-0.0772 -0.0882,-0.12678 -0.17639,-0.12678 -0.0992,0 -0.17639,0.0772 -0.17639,0.17088 0,0.0275 0.011,0.0551 0.022,0.0827 l 0.68902,1.62608 c 0.0386,0.0827 0.0992,0.13781 0.19844,0.13781 z m 0,0"
       id="path24645" />
    <path
       inkscape:connector-curvature="0"
       style="fill:#000000;fill-opacity:1;stroke:none;stroke-width:0.35277775"
       d="m 335.2121,169.93075 c 0,0.0992 0.0717,0.17639 0.17088,0.17639 0.0992,0 0.17639,-0.0772 0.17639,-0.17639 v -1.65915 c 0,-0.0937 -0.0772,-0.17088 -0.17639,-0.17088 -0.0992,0 -0.17088,0.0772 -0.17088,0.17088 z m 0,0"
       id="path24641" />
    <path
       inkscape:connector-curvature="0"
       style="fill:#000000;fill-opacity:1;stroke:none;stroke-width:0.35277775"
       d="m 337.05221,170.12368 c 0.31971,0 0.53468,-0.0992 0.7221,-0.26458 0.0275,-0.0276 0.0551,-0.0717 0.0551,-0.12679 0,-0.0827 -0.0772,-0.15985 -0.16537,-0.15985 -0.0441,0 -0.0772,0.0165 -0.10473,0.0386 -0.14332,0.12127 -0.28663,0.19293 -0.49058,0.19293 -0.38034,0 -0.65595,-0.31419 -0.65595,-0.70005 v -0.005 c 0,-0.38585 0.27561,-0.70004 0.65595,-0.70004 0.18741,0 0.33073,0.0717 0.46853,0.1819 0.022,0.0165 0.0551,0.0331 0.10473,0.0331 0.0937,0 0.17088,-0.0772 0.17088,-0.17088 0,-0.0606 -0.0275,-0.11024 -0.0661,-0.1378 -0.17088,-0.13229 -0.37483,-0.226 -0.67799,-0.226 -0.60083,0 -1.01975,0.46302 -1.01975,1.02526 v 0.005 c 0,0.56775 0.42994,1.01424 1.00321,1.01424 z m 0,0"
       id="path24637" />
    <path
       inkscape:connector-curvature="0"
       style="fill:#000000;fill-opacity:1;stroke:none;stroke-width:0.35277775"
       d="m 338.46356,170.09061 h 1.16307 c 0.0827,0 0.15434,-0.0661 0.15434,-0.15435 0,-0.0882 -0.0717,-0.15433 -0.15434,-0.15433 h -0.99219 v -0.53469 h 0.84887 c 0.0882,0 0.15434,-0.0661 0.15434,-0.14882 0,-0.0882 -0.0661,-0.15986 -0.15434,-0.15986 h -0.84887 v -0.51262 h 0.97565 c 0.0882,0 0.15434,-0.0661 0.15434,-0.15434 0,-0.0882 -0.0661,-0.15435 -0.15434,-0.15435 h -1.14653 c -0.0992,0 -0.17638,0.0717 -0.17638,0.17088 v 1.62609 c 0,0.0992 0.0772,0.17639 0.17638,0.17639 z m 0,0"
       id="path24633" />
    <path
       inkscape:connector-curvature="0"
       style="fill:#000000;fill-opacity:1;stroke:none;stroke-width:0.35277775"
       d="m 317.78371,192.88542 c 0,0.0772 0.0606,0.13229 0.13229,0.13229 0.0606,0 0.11024,-0.0331 0.13229,-0.0882 l 0.13229,-0.30868 h 0.78273 l 0.13229,0.29766 c 0.0221,0.0606 0.0661,0.0992 0.1378,0.0992 0.0717,0 0.1323,-0.0606 0.1323,-0.13229 0,-0.022 -0.005,-0.0441 -0.0165,-0.0606 l -0.59531,-1.33396 c -0.0331,-0.0661 -0.0882,-0.11024 -0.17088,-0.11024 h -0.011 c -0.0827,0 -0.1378,0.0441 -0.17087,0.11024 l -0.59531,1.33395 c -0.011,0.022 -0.022,0.0441 -0.022,0.0606 z m 0.50712,-0.51814 0.28112,-0.64492 0.28112,0.64492 z m 0,0"
       id="path24625" />
    <path
       inkscape:connector-curvature="0"
       style="fill:#000000;fill-opacity:1;stroke:none;stroke-width:0.35277775"
       d="m 319.71236,192.87991 c 0,0.0772 0.0661,0.1378 0.14332,0.1378 0.0772,0 0.14331,-0.0606 0.14331,-0.1378 v -0.52917 h 0.68902 c 0.0717,0 0.13229,-0.0551 0.13229,-0.12678 0,-0.0717 -0.0606,-0.12678 -0.13229,-0.12678 h -0.68902 v -0.44097 h 0.79375 c 0.0717,0 0.12678,-0.0551 0.12678,-0.12678 0,-0.0717 -0.0551,-0.12678 -0.12678,-0.12678 h -0.93706 c -0.0772,0 -0.14332,0.0606 -0.14332,0.14332 z m 0,0"
       id="path24629" />
    <path
       inkscape:connector-curvature="0"
       style="fill:#000000;fill-opacity:1;stroke:none;stroke-width:0.35277775"
       d="m 321.71941,192.87991 c 0,0.0772 0.0661,0.1378 0.14331,0.1378 0.0772,0 0.14332,-0.0606 0.14332,-0.1378 v -1.21819 h 0.39136 c 0.0717,0 0.12678,-0.0606 0.12678,-0.12678 0,-0.0717 -0.0551,-0.13229 -0.12678,-0.13229 h -1.06935 c -0.0717,0 -0.12679,0.0606 -0.12679,0.13229 0,0.0661 0.0551,0.12678 0.12679,0.12678 h 0.39136 z m 0,0"
       id="path24621" />
    <path
       inkscape:connector-curvature="0"
       style="fill:#000000;fill-opacity:1;stroke:none;stroke-width:0.35277775"
       d="m 329.89352,192.87991 c 0,0.0772 0.0661,0.1378 0.14332,0.1378 0.0772,0 0.14331,-0.0606 0.14331,-0.1378 v -0.39136 h 0.3142 c 0.35277,0 0.64492,-0.18742 0.64492,-0.54571 v -0.005 c 0,-0.32522 -0.23703,-0.53468 -0.61185,-0.53468 h -0.49058 c -0.0772,0 -0.14332,0.0606 -0.14332,0.14332 z m 0.28663,-0.64492 v -0.57878 h 0.32522 c 0.20946,0 0.34726,0.0992 0.34726,0.28663 v 0.006 c 0,0.17088 -0.13229,0.28663 -0.34726,0.28663 z m 0,0"
       id="path24613" />
    <path
       inkscape:connector-curvature="0"
       style="fill:#000000;fill-opacity:1;stroke:none;stroke-width:0.35277775"
       d="m 331.86982,192.91298 c 0.0276,0.0717 0.0772,0.11576 0.14332,0.11576 h 0.0275 c 0.0717,0 0.12127,-0.0441 0.14883,-0.11576 l 0.35829,-1.04731 0.35829,1.04731 c 0.0221,0.0717 0.0717,0.11576 0.14331,0.11576 h 0.0275 c 0.0661,0 0.12127,-0.0441 0.14883,-0.11576 l 0.47405,-1.32843 c 0.005,-0.0165 0.011,-0.0386 0.011,-0.0606 0,-0.0717 -0.0661,-0.13229 -0.13781,-0.13229 -0.0717,0 -0.11575,0.0441 -0.1378,0.0992 l -0.36931,1.10795 -0.36381,-1.10243 c -0.022,-0.0662 -0.0717,-0.11024 -0.14331,-0.11024 h -0.0165 c -0.0717,0 -0.12127,0.0441 -0.14332,0.11024 l -0.3638,1.10243 -0.36932,-1.10795 c -0.0166,-0.0551 -0.0717,-0.0992 -0.1378,-0.0992 -0.0772,0 -0.14883,0.0606 -0.14883,0.13781 0,0.0165 0.005,0.0386 0.0165,0.0551 z m 0,0"
       id="path24617" />
    <path
       inkscape:connector-curvature="0"
       style="fill:#000000;fill-opacity:1;stroke:none;stroke-width:0.35277775"
       d="m 341.27166,192.87991 c 0,0.0772 0.0606,0.1378 0.1378,0.1378 0.0827,0 0.14332,-0.0606 0.14332,-0.1378 v -0.95912 l 0.38585,0.58429 c 0.0331,0.0441 0.0717,0.0717 0.12127,0.0717 0.0496,0 0.0882,-0.0275 0.11575,-0.0717 l 0.39136,-0.5898 v 0.96463 c 0,0.0717 0.0661,0.1378 0.14332,0.1378 0.0772,0 0.14332,-0.0606 0.14332,-0.1378 v -1.34497 c 0,-0.0772 -0.0661,-0.14331 -0.14332,-0.14331 h -0.0331 c -0.0551,0 -0.0937,0.0276 -0.12678,0.0717 l -0.48507,0.76618 -0.49058,-0.76067 c -0.0276,-0.0441 -0.0661,-0.0772 -0.12678,-0.0772 h -0.0331 c -0.0772,0 -0.14331,0.0662 -0.14331,0.14331 z m 0,0"
       id="path24605" />
    <path
       inkscape:connector-curvature="0"
       style="fill:#000000;fill-opacity:1;stroke:none;stroke-width:0.35277775"
       d="m 343.69052,192.91298 c 0.0276,0.0717 0.0772,0.11576 0.14332,0.11576 h 0.0275 c 0.0717,0 0.12127,-0.0441 0.14883,-0.11576 l 0.35829,-1.04731 0.35829,1.04731 c 0.022,0.0717 0.0717,0.11576 0.14331,0.11576 h 0.0275 c 0.0662,0 0.12127,-0.0441 0.14883,-0.11576 l 0.47404,-1.32843 c 0.005,-0.0165 0.011,-0.0386 0.011,-0.0606 0,-0.0717 -0.0661,-0.13229 -0.1378,-0.13229 -0.0717,0 -0.11575,0.0441 -0.1378,0.0992 l -0.36931,1.10795 -0.36381,-1.10243 c -0.022,-0.0662 -0.0717,-0.11024 -0.14331,-0.11024 h -0.0165 c -0.0717,0 -0.12127,0.0441 -0.14332,0.11024 l -0.3638,1.10243 -0.36931,-1.10795 c -0.0165,-0.0551 -0.0717,-0.0992 -0.13781,-0.0992 -0.0772,0 -0.14882,0.0606 -0.14882,0.13781 0,0.0165 0.005,0.0386 0.0165,0.0551 z m 0,0"
       id="path24609" />
    <path
       inkscape:connector-curvature="0"
       style="fill:#000000;fill-opacity:1;stroke:none;stroke-width:0.35277775"
       d="m 316.97913,177.0278 h 0.0165 c 0.0772,0 0.13229,-0.0441 0.15986,-0.11576 l 0.56775,-1.32842 c 0.005,-0.0165 0.011,-0.0386 0.011,-0.0606 0,-0.0717 -0.0606,-0.1323 -0.1378,-0.1323 -0.0661,0 -0.11575,0.0441 -0.1378,0.0882 l -0.46853,1.16858 -0.46303,-1.15755 c -0.022,-0.0606 -0.0717,-0.0992 -0.14331,-0.0992 -0.0827,0 -0.14332,0.0606 -0.14332,0.1378 0,0.022 0.005,0.0441 0.0165,0.0661 l 0.56224,1.31741 c 0.0276,0.0717 0.0827,0.11575 0.15985,0.11575 z m 0,0"
       id="path24597" />
    <path
       inkscape:connector-curvature="0"
       style="fill:#000000;fill-opacity:1;stroke:none;stroke-width:0.35277775"
       d="m 317.71982,177.20419 c 0,0.0606 0.0496,0.10473 0.11025,0.10473 0.0441,0 0.0772,-0.022 0.0992,-0.0606 l 0.93706,-1.92374 c 0.005,-0.011 0.011,-0.0331 0.011,-0.0551 0,-0.0551 -0.0441,-0.10473 -0.10473,-0.10473 -0.0441,0 -0.0827,0.022 -0.0992,0.0661 l -0.94258,1.91823 c -0.006,0.0165 -0.011,0.0331 -0.011,0.0551 z m 0,0"
       id="path24601" />
    <path
       inkscape:connector-curvature="0"
       style="fill:#000000;fill-opacity:1;stroke:none;stroke-width:0.35277775"
       d="m 319.84405,177.03331 c 0.49609,0 0.84336,-0.38034 0.84336,-0.83233 0,-0.452 -0.34175,-0.82683 -0.83785,-0.82683 -0.49058,0 -0.83785,0.37483 -0.83785,0.82683 v 0.006 c 0,0.45199 0.34176,0.82682 0.83234,0.82682 z m 0.006,-0.25907 c -0.31971,0 -0.54571,-0.25907 -0.54571,-0.57326 0,-0.3142 0.226,-0.56776 0.54019,-0.56776 0.31971,0 0.54571,0.25908 0.54571,0.56776 v 0.006 c 0,0.31419 -0.22049,0.56775 -0.54019,0.56775 z m 0,0"
       id="path24593" />
    <path
       inkscape:connector-curvature="0"
       style="fill:#000000;fill-opacity:1;stroke:none;stroke-width:0.35277775"
       d="m 321.83921,177.03331 c 0.25907,0 0.42995,-0.0827 0.57878,-0.21497 0.0276,-0.022 0.0496,-0.0606 0.0496,-0.0992 0,-0.0717 -0.0661,-0.13229 -0.13781,-0.13229 -0.0331,0 -0.0606,0.011 -0.0827,0.0331 -0.11576,0.0992 -0.23151,0.15434 -0.40239,0.15434 -0.30317,0 -0.52917,-0.25908 -0.52917,-0.57327 0,-0.31419 0.226,-0.56775 0.52917,-0.56775 0.15434,0 0.27561,0.0551 0.38585,0.14331 0.0165,0.0165 0.0441,0.0275 0.0827,0.0275 0.0772,0 0.14332,-0.0606 0.14332,-0.1378 0,-0.0496 -0.0276,-0.0882 -0.0551,-0.11024 -0.14332,-0.11025 -0.30317,-0.1819 -0.55122,-0.1819 -0.48507,0 -0.82682,0.37482 -0.82682,0.82682 v 0.005 c 0,0.46302 0.34726,0.82682 0.8158,0.82682 z m 0,0"
       id="path24589" />
    <path
       inkscape:connector-curvature="0"
       style="fill:#000000;fill-opacity:1;stroke:none;stroke-width:0.35277775"
       d="m 323.26309,176.87897 c 0,0.0772 0.0662,0.13781 0.14332,0.13781 0.0772,0 0.14331,-0.0606 0.14331,-0.13781 v -1.21818 h 0.39137 c 0.0717,0 0.12678,-0.0606 0.12678,-0.12679 0,-0.0717 -0.0551,-0.13229 -0.12678,-0.13229 h -1.06936 c -0.0717,0 -0.12678,0.0606 -0.12678,0.13229 0,0.0662 0.0551,0.12679 0.12678,0.12679 h 0.39136 z m 0,0"
       id="path24585" />
    <path
       inkscape:connector-curvature="0"
       style="fill:#000000;fill-opacity:1;stroke:none;stroke-width:0.35277775"
       d="m 329.43521,177.03331 c 0.23703,0 0.42995,-0.0827 0.56775,-0.17639 0.0662,-0.0386 0.0992,-0.0992 0.0992,-0.17639 v -0.42994 c 0,-0.0772 -0.0606,-0.14332 -0.14331,-0.14332 h -0.44648 c -0.0661,0 -0.12679,0.0551 -0.12679,0.12678 0,0.0661 0.0606,0.12127 0.12679,0.12127 h 0.3197 v 0.29765 c -0.0992,0.0772 -0.23702,0.12127 -0.39136,0.12127 -0.32522,0 -0.54571,-0.24253 -0.54571,-0.57326 0,-0.30868 0.226,-0.56776 0.52366,-0.56776 0.17088,0 0.28663,0.0496 0.38585,0.12679 0.0276,0.0165 0.0551,0.0331 0.0882,0.0331 0.0772,0 0.14331,-0.0661 0.14331,-0.14332 0,-0.0551 -0.0331,-0.0937 -0.0606,-0.11576 -0.14331,-0.10473 -0.30868,-0.15985 -0.5457,-0.15985 -0.48507,0 -0.82682,0.38034 -0.82682,0.82683 v 0.005 c 0,0.46853 0.32522,0.82682 0.83233,0.82682 z m 0,0"
       id="path24581" />
    <path
       inkscape:connector-curvature="0"
       style="fill:#000000;fill-opacity:1;stroke:none;stroke-width:0.35277775"
       d="m 330.4063,176.88448 c 0,0.0772 0.0606,0.1323 0.13229,0.1323 0.0606,0 0.11025,-0.0331 0.1323,-0.0882 l 0.13229,-0.30868 h 0.78272 l 0.13229,0.29765 c 0.022,0.0606 0.0661,0.0992 0.13781,0.0992 0.0717,0 0.13229,-0.0606 0.13229,-0.13229 0,-0.022 -0.005,-0.0441 -0.0165,-0.0606 l -0.59531,-1.33394 c -0.0331,-0.0661 -0.0882,-0.11024 -0.17088,-0.11024 h -0.011 c -0.0827,0 -0.1378,0.0441 -0.17088,0.11024 l -0.59531,1.33394 c -0.011,0.022 -0.022,0.0441 -0.022,0.0606 z m 0.50712,-0.51814 0.28112,-0.64492 0.28112,0.64492 z m 0,0"
       id="path24573" />
    <path
       inkscape:connector-curvature="0"
       style="fill:#000000;fill-opacity:1;stroke:none;stroke-width:0.35277775"
       d="m 332.55296,176.87897 c 0,0.0772 0.0661,0.13781 0.14332,0.13781 0.0772,0 0.14331,-0.0606 0.14331,-0.13781 v -1.21818 h 0.39137 c 0.0717,0 0.12678,-0.0606 0.12678,-0.12679 0,-0.0717 -0.0551,-0.13229 -0.12678,-0.13229 h -1.06936 c -0.0717,0 -0.12678,0.0606 -0.12678,0.13229 0,0.0662 0.0551,0.12679 0.12678,0.12679 h 0.39136 z m 0,0"
       id="path24577" />
    <path
       inkscape:connector-curvature="0"
       style="fill:#000000;fill-opacity:1;stroke:none;stroke-width:0.35277775"
       d="m 333.83941,177.00575 h 0.94809 c 0.0661,0 0.12677,-0.0551 0.12677,-0.12678 0,-0.0662 -0.0606,-0.12678 -0.12677,-0.12678 h -0.80478 v -0.42994 h 0.68902 c 0.0661,0 0.12678,-0.0551 0.12678,-0.12127 0,-0.0717 -0.0606,-0.1323 -0.12678,-0.1323 h -0.68902 v -0.41341 h 0.79375 c 0.0661,0 0.12127,-0.0551 0.12127,-0.12677 0,-0.0717 -0.0551,-0.12679 -0.12127,-0.12679 h -0.93706 c -0.0772,0 -0.14332,0.0606 -0.14332,0.14332 v 1.3174 c 0,0.0827 0.0661,0.14332 0.14332,0.14332 z m 0,0"
       id="path24569" />
    <path
       inkscape:connector-curvature="0"
       style="fill:#000000;fill-opacity:1;stroke:none;stroke-width:0.35277775"
       d="m 341.80373,177.0278 h 0.0165 c 0.0772,0 0.13229,-0.0441 0.15986,-0.11576 l 0.56775,-1.32842 c 0.005,-0.0165 0.011,-0.0386 0.011,-0.0606 0,-0.0717 -0.0606,-0.1323 -0.1378,-0.1323 -0.0661,0 -0.11576,0.0441 -0.13781,0.0882 l -0.46853,1.16858 -0.46302,-1.15755 c -0.022,-0.0606 -0.0717,-0.0992 -0.14332,-0.0992 -0.0827,0 -0.14331,0.0606 -0.14331,0.1378 0,0.022 0.006,0.0441 0.0165,0.0661 l 0.56224,1.31741 c 0.0275,0.0717 0.0827,0.11575 0.15985,0.11575 z m 0,0"
       id="path24561" />
    <path
       inkscape:connector-curvature="0"
       style="fill:#000000;fill-opacity:1;stroke:none;stroke-width:0.35277775"
       d="m 343.04762,177.00575 h 0.94809 c 0.0661,0 0.12679,-0.0551 0.12679,-0.12678 0,-0.0662 -0.0606,-0.12678 -0.12679,-0.12678 h -0.80477 v -0.42994 h 0.68902 c 0.0661,0 0.12678,-0.0551 0.12678,-0.12127 0,-0.0717 -0.0606,-0.1323 -0.12678,-0.1323 h -0.68902 v -0.41341 h 0.79375 c 0.0661,0 0.12127,-0.0551 0.12127,-0.12677 0,-0.0717 -0.0551,-0.12679 -0.12127,-0.12679 h -0.93707 c -0.0772,0 -0.14331,0.0606 -0.14331,0.14332 v 1.3174 c 0,0.0827 0.0661,0.14332 0.14331,0.14332 z m 0,0"
       id="path24565" />
    <path
       inkscape:connector-curvature="0"
       style="fill:#000000;fill-opacity:1;stroke:none;stroke-width:0.35277775"
       d="m 344.5051,176.86243 c 0,0.0827 0.0661,0.14332 0.14331,0.14332 h 0.86541 c 0.0717,0 0.13229,-0.0551 0.13229,-0.12678 0,-0.0717 -0.0606,-0.13229 -0.13229,-0.13229 h -0.72209 v -1.21818 c 0,-0.0772 -0.0661,-0.13781 -0.14332,-0.13781 -0.0772,0 -0.14331,0.0606 -0.14331,0.13781 z m 0,0"
       id="path24557" />
    <path
       inkscape:connector-curvature="0"
       style="fill:#000000;fill-opacity:1;stroke:none;stroke-width:0.35277775"
       d="m 318.66393,209.03431 c 0.25907,0 0.42995,-0.0827 0.57878,-0.21498 0.0276,-0.022 0.0496,-0.0606 0.0496,-0.0992 0,-0.0717 -0.0661,-0.13229 -0.1378,-0.13229 -0.0331,0 -0.0606,0.011 -0.0827,0.0331 -0.11576,0.0992 -0.23151,0.15434 -0.40239,0.15434 -0.30317,0 -0.52916,-0.25907 -0.52916,-0.57327 0,-0.31419 0.22599,-0.56774 0.52916,-0.56774 0.15434,0 0.27561,0.0551 0.38585,0.14331 0.0165,0.0165 0.0441,0.0275 0.0827,0.0275 0.0772,0 0.14332,-0.0606 0.14332,-0.1378 0,-0.0496 -0.0276,-0.0882 -0.0551,-0.11025 -0.14332,-0.11024 -0.30317,-0.1819 -0.55122,-0.1819 -0.48507,0 -0.82682,0.37483 -0.82682,0.82683 v 0.005 c 0,0.46302 0.34727,0.82682 0.8158,0.82682 z m 0,0"
       id="path24371" />
    <path
       inkscape:connector-curvature="0"
       style="fill:#000000;fill-opacity:1;stroke:none;stroke-width:0.35277775"
       d="m 319.67856,208.86343 c 0,0.0827 0.0661,0.14332 0.14331,0.14332 h 0.86541 c 0.0717,0 0.13229,-0.0551 0.13229,-0.12678 0,-0.0717 -0.0606,-0.13229 -0.13229,-0.13229 h -0.72209 v -1.21819 c 0,-0.0772 -0.0661,-0.1378 -0.14332,-0.1378 -0.0772,0 -0.14331,0.0606 -0.14331,0.1378 z m 0,0"
       id="path24367" />
    <path
       inkscape:connector-curvature="0"
       style="fill:#000000;fill-opacity:1;stroke:none;stroke-width:0.35277775"
       d="m 321.15413,208.87997 c 0,0.0772 0.0661,0.1378 0.14332,0.1378 0.0772,0 0.14331,-0.0606 0.14331,-0.1378 v -0.33625 l 0.25908,-0.24804 0.51814,0.65594 c 0.0275,0.0386 0.0606,0.0662 0.11575,0.0662 0.0827,0 0.14332,-0.0606 0.14332,-0.1378 0,-0.0441 -0.0165,-0.0717 -0.0386,-0.0992 l -0.54019,-0.67248 0.49609,-0.47956 c 0.0331,-0.0331 0.0551,-0.0662 0.0551,-0.11024 0,-0.0662 -0.0551,-0.12678 -0.13229,-0.12678 -0.0496,0 -0.0827,0.0165 -0.11576,0.0496 l -0.76068,0.76619 v -0.678 c 0,-0.0772 -0.0661,-0.1378 -0.14331,-0.1378 -0.0772,0 -0.14332,0.0606 -0.14332,0.1378 z m 0,0"
       id="path24363" />
    <path
       inkscape:connector-curvature="0"
       style="fill:#000000;fill-opacity:1;stroke:none;stroke-width:0.35277775"
       d="m 330.01942,209.02879 h 0.0165 c 0.0772,0 0.13229,-0.0441 0.15985,-0.11575 l 0.56775,-1.32843 c 0.006,-0.0165 0.011,-0.0386 0.011,-0.0606 0,-0.0717 -0.0606,-0.13229 -0.1378,-0.13229 -0.0661,0 -0.11576,0.0441 -0.1378,0.0882 l -0.46854,1.16858 -0.46302,-1.15756 c -0.022,-0.0606 -0.0717,-0.0992 -0.14331,-0.0992 -0.0827,0 -0.14332,0.0606 -0.14332,0.1378 0,0.022 0.005,0.0441 0.0165,0.0661 l 0.56224,1.31741 c 0.0276,0.0717 0.0827,0.11575 0.15986,0.11575 z m 0,0"
       id="path24355" />
    <path
       inkscape:connector-curvature="0"
       style="fill:#000000;fill-opacity:1;stroke:none;stroke-width:0.35277775"
       d="m 331.83574,209.03431 c 0.49609,0 0.84335,-0.38034 0.84335,-0.83234 0,-0.452 -0.34175,-0.82682 -0.83784,-0.82682 -0.49058,0 -0.83785,0.37482 -0.83785,0.82682 v 0.006 c 0,0.452 0.34175,0.82682 0.83234,0.82682 z m 0.006,-0.25907 c -0.31971,0 -0.54571,-0.25907 -0.54571,-0.57327 0,-0.31419 0.226,-0.56775 0.5402,-0.56775 0.3197,0 0.5457,0.25907 0.5457,0.56775 v 0.006 c 0,0.31419 -0.22049,0.56775 -0.54019,0.56775 z m 0,0"
       id="path24359" />
    <path
       inkscape:connector-curvature="0"
       style="fill:#000000;fill-opacity:1;stroke:none;stroke-width:0.35277775"
       d="m 333.09087,208.86343 c 0,0.0827 0.0661,0.14332 0.14332,0.14332 h 0.86541 c 0.0717,0 0.13229,-0.0551 0.13229,-0.12678 0,-0.0717 -0.0606,-0.13229 -0.13229,-0.13229 h -0.7221 v -1.21819 c 0,-0.0772 -0.0661,-0.1378 -0.14331,-0.1378 -0.0772,0 -0.14332,0.0606 -0.14332,0.1378 z m 0,0"
       id="path24351" />
    <path
       inkscape:connector-curvature="0"
       style="fill:#000000;fill-opacity:1;stroke:none;stroke-width:0.35277775"
       d="m 340.98929,208.87997 c 0,0.0772 0.0661,0.1378 0.14331,0.1378 0.0772,0 0.14332,-0.0606 0.14332,-0.1378 v -0.39137 h 0.3142 c 0.35277,0 0.64492,-0.18741 0.64492,-0.5457 v -0.006 c 0,-0.32521 -0.23703,-0.53468 -0.61185,-0.53468 h -0.49059 c -0.0772,0 -0.14331,0.0606 -0.14331,0.14332 z m 0.28663,-0.64493 v -0.57877 h 0.32522 c 0.20946,0 0.34727,0.0992 0.34727,0.28663 v 0.005 c 0,0.17088 -0.1323,0.28663 -0.34727,0.28663 z m 0,0"
       id="path24343" />
    <path
       inkscape:connector-curvature="0"
       style="fill:#000000;fill-opacity:1;stroke:none;stroke-width:0.35277775"
       d="m 342.37183,208.88548 c 0,0.0772 0.0606,0.13229 0.13229,0.13229 0.0606,0 0.11024,-0.0331 0.13229,-0.0882 l 0.13229,-0.30868 h 0.78273 l 0.13229,0.29765 c 0.022,0.0606 0.0661,0.0992 0.1378,0.0992 0.0717,0 0.13229,-0.0606 0.13229,-0.13229 0,-0.022 -0.005,-0.0441 -0.0165,-0.0606 l -0.59531,-1.33394 c -0.033,-0.0662 -0.0882,-0.11024 -0.17087,-0.11024 h -0.011 c -0.0827,0 -0.13781,0.0441 -0.17088,0.11024 l -0.59532,1.33394 c -0.011,0.022 -0.022,0.0441 -0.022,0.0606 z m 0.50711,-0.51815 0.28112,-0.64491 0.28112,0.64491 z m 0,0"
       id="path24347" />
    <path
       inkscape:connector-curvature="0"
       style="fill:#000000;fill-opacity:1;stroke:none;stroke-width:0.35277775"
       d="m 344.30138,208.87997 c 0,0.0772 0.0661,0.1378 0.14332,0.1378 0.0772,0 0.1378,-0.0606 0.1378,-0.1378 v -1.01975 l 0.82683,1.06935 c 0.0386,0.0496 0.0772,0.0882 0.14331,0.0882 h 0.011 c 0.0772,0 0.13781,-0.0662 0.13781,-0.14331 v -1.34497 c 0,-0.0772 -0.0606,-0.1378 -0.13781,-0.1378 -0.0772,0 -0.1378,0.0606 -0.1378,0.1378 v 0.98668 l -0.80478,-1.0418 c -0.0386,-0.0496 -0.0772,-0.0827 -0.14331,-0.0827 h -0.0331 c -0.0772,0 -0.14332,0.0661 -0.14332,0.14332 z m 0,0"
       id="path24339" />
    <path
       inkscape:connector-curvature="0"
       style="fill:#000000;fill-opacity:1;stroke:none;stroke-width:0.35277775"
       d="m 317.78401,225.02973 c 0.34176,0 0.57327,-0.17639 0.57327,-0.47955 v -0.006 c 0,-0.26458 -0.17088,-0.38585 -0.51264,-0.46853 -0.30868,-0.0717 -0.38033,-0.12678 -0.38033,-0.25356 0,-0.11024 0.0937,-0.19293 0.25907,-0.19293 0.12678,0 0.24805,0.0386 0.36931,0.12127 0.022,0.0165 0.0441,0.022 0.0717,0.022 0.0772,0 0.1378,-0.0606 0.1378,-0.13229 0,-0.0551 -0.0331,-0.0937 -0.0661,-0.11024 -0.14332,-0.0992 -0.30317,-0.14883 -0.50712,-0.14883 -0.3197,0 -0.5457,0.18741 -0.5457,0.46302 v 0.006 c 0,0.29765 0.18741,0.39687 0.52916,0.47956 0.30317,0.0661 0.3638,0.13229 0.3638,0.24253 v 0.005 c 0,0.12127 -0.11024,0.20395 -0.28111,0.20395 -0.17639,0 -0.31971,-0.0606 -0.452,-0.16536 -0.0165,-0.0165 -0.0441,-0.0275 -0.0827,-0.0275 -0.0717,0 -0.1323,0.0606 -0.1323,0.13229 0,0.0441 0.022,0.0827 0.0551,0.11024 0.17638,0.1323 0.38585,0.19844 0.60082,0.19844 z m 0,0"
       id="path24335" />
    <path
       inkscape:connector-curvature="0"
       style="fill:#000000;fill-opacity:1;stroke:none;stroke-width:0.35277775"
       d="m 319.1456,224.88091 c 0,0.0772 0.0661,0.1378 0.14331,0.1378 0.0772,0 0.14332,-0.0606 0.14332,-0.1378 v -1.21819 h 0.39136 c 0.0717,0 0.12678,-0.0606 0.12678,-0.12678 0,-0.0717 -0.0551,-0.13229 -0.12678,-0.13229 h -1.06935 c -0.0717,0 -0.12679,0.0606 -0.12679,0.13229 0,0.0661 0.0551,0.12678 0.12679,0.12678 h 0.39136 z m 0,0"
       id="path24331" />
    <path
       inkscape:connector-curvature="0"
       style="fill:#000000;fill-opacity:1;stroke:none;stroke-width:0.35277775"
       d="m 320.28851,224.88091 c 0,0.0772 0.0661,0.1378 0.14331,0.1378 0.0772,0 0.14332,-0.0606 0.14332,-0.1378 v -0.43547 h 0.35277 l 0.39137,0.50161 c 0.0331,0.0441 0.0717,0.0717 0.1378,0.0717 0.0661,0 0.13229,-0.0496 0.13229,-0.1323 0,-0.0441 -0.0165,-0.0716 -0.0441,-0.10472 l -0.30868,-0.38586 c 0.21498,-0.0717 0.36381,-0.22599 0.36381,-0.47955 v -0.006 c 0,-0.14331 -0.0441,-0.25907 -0.1323,-0.34726 -0.0992,-0.0992 -0.25907,-0.15985 -0.46302,-0.15985 h -0.57326 c -0.0772,0 -0.14331,0.0606 -0.14331,0.14331 z m 0.28663,-0.68351 v -0.54019 h 0.4079 c 0.20946,0 0.33073,0.0937 0.33073,0.27009 0,0.16536 -0.12678,0.2701 -0.33073,0.2701 z m 0,0"
       id="path24327" />
    <path
       inkscape:connector-curvature="0"
       style="fill:#000000;fill-opacity:1;stroke:none;stroke-width:0.35277775"
       d="m 322.38797,224.88091 c 0,0.0772 0.0661,0.1378 0.14332,0.1378 0.0772,0 0.14331,-0.0606 0.14331,-0.1378 v -1.21819 h 0.39137 c 0.0717,0 0.12678,-0.0606 0.12678,-0.12678 0,-0.0717 -0.0551,-0.13229 -0.12678,-0.13229 h -1.06936 c -0.0717,0 -0.12678,0.0606 -0.12678,0.13229 0,0.0661 0.0551,0.12678 0.12678,0.12678 h 0.39136 z m 0,0"
       id="path24323" />
    <path
       inkscape:connector-curvature="0"
       style="fill:#000000;fill-opacity:1;stroke:none;stroke-width:0.35277775"
       d="m 329.23784,225.02973 c 0.34175,0 0.57326,-0.17639 0.57326,-0.47955 v -0.006 c 0,-0.26458 -0.17088,-0.38585 -0.51263,-0.46853 -0.30868,-0.0717 -0.38034,-0.12678 -0.38034,-0.25356 0,-0.11024 0.0937,-0.19293 0.25907,-0.19293 0.12678,0 0.24805,0.0386 0.36932,0.12127 0.0221,0.0165 0.0441,0.022 0.0717,0.022 0.0772,0 0.1378,-0.0606 0.1378,-0.13229 0,-0.0551 -0.0331,-0.0937 -0.0661,-0.11024 -0.14331,-0.0992 -0.30317,-0.14883 -0.50712,-0.14883 -0.3197,0 -0.5457,0.18741 -0.5457,0.46302 v 0.006 c 0,0.29765 0.18741,0.39687 0.52916,0.47956 0.30318,0.0661 0.36381,0.13229 0.36381,0.24253 v 0.005 c 0,0.12127 -0.11025,0.20395 -0.28112,0.20395 -0.17639,0 -0.31971,-0.0606 -0.452,-0.16536 -0.0165,-0.0165 -0.0441,-0.0275 -0.0827,-0.0275 -0.0717,0 -0.13229,0.0606 -0.13229,0.13229 0,0.0441 0.022,0.0827 0.0551,0.11024 0.17639,0.1323 0.38585,0.19844 0.60083,0.19844 z m 0,0"
       id="path24319" />
    <path
       inkscape:connector-curvature="0"
       style="fill:#000000;fill-opacity:1;stroke:none;stroke-width:0.35277775"
       d="m 330.59942,224.88091 c 0,0.0772 0.0661,0.1378 0.14332,0.1378 0.0772,0 0.14331,-0.0606 0.14331,-0.1378 v -1.21819 h 0.39137 c 0.0717,0 0.12677,-0.0606 0.12677,-0.12678 0,-0.0717 -0.0551,-0.13229 -0.12677,-0.13229 h -1.06936 c -0.0717,0 -0.12678,0.0606 -0.12678,0.13229 0,0.0661 0.0551,0.12678 0.12678,0.12678 h 0.39136 z m 0,0"
       id="path24311" />
    <path
       inkscape:connector-curvature="0"
       style="fill:#000000;fill-opacity:1;stroke:none;stroke-width:0.35277775"
       d="m 332.43628,225.03525 c 0.49609,0 0.84336,-0.38035 0.84336,-0.83234 0,-0.452 -0.34175,-0.82682 -0.83784,-0.82682 -0.49059,0 -0.83785,0.37482 -0.83785,0.82682 v 0.005 c 0,0.452 0.34175,0.82682 0.83233,0.82682 z m 0.005,-0.25908 c -0.3197,0 -0.5457,-0.25907 -0.5457,-0.57326 0,-0.31419 0.226,-0.56775 0.54019,-0.56775 0.3197,0 0.5457,0.25907 0.5457,0.56775 v 0.005 c 0,0.31419 -0.22048,0.56775 -0.54019,0.56775 z m 0,0"
       id="path24315" />
    <path
       inkscape:connector-curvature="0"
       style="fill:#000000;fill-opacity:1;stroke:none;stroke-width:0.35277775"
       d="m 333.6912,224.88091 c 0,0.0772 0.0661,0.1378 0.14332,0.1378 0.0772,0 0.14331,-0.0606 0.14331,-0.1378 v -0.39137 h 0.3142 c 0.35277,0 0.64492,-0.18741 0.64492,-0.5457 v -0.005 c 0,-0.32522 -0.23702,-0.53468 -0.61185,-0.53468 h -0.49058 c -0.0772,0 -0.14332,0.0606 -0.14332,0.14331 z m 0.28663,-0.64493 v -0.57877 h 0.32522 c 0.20946,0 0.34726,0.0992 0.34726,0.28663 v 0.005 c 0,0.17088 -0.13229,0.28663 -0.34726,0.28663 z m 0,0"
       id="path24307" />
    <path
       inkscape:connector-curvature="0"
       style="fill:#000000;fill-opacity:1;stroke:none;stroke-width:0.35277775"
       d="m 340.75065,225.03525 c 0.25907,0 0.42995,-0.0827 0.57878,-0.21498 0.0276,-0.022 0.0496,-0.0606 0.0496,-0.0992 0,-0.0717 -0.0661,-0.13229 -0.1378,-0.13229 -0.0331,0 -0.0606,0.011 -0.0827,0.0331 -0.11576,0.0992 -0.23151,0.15433 -0.40239,0.15433 -0.30317,0 -0.52917,-0.25906 -0.52917,-0.57326 0,-0.31419 0.226,-0.56775 0.52917,-0.56775 0.15434,0 0.27561,0.0551 0.38585,0.14332 0.0165,0.0165 0.0441,0.0275 0.0827,0.0275 0.0772,0 0.14331,-0.0606 0.14331,-0.1378 0,-0.0496 -0.0276,-0.0882 -0.0551,-0.11025 -0.14331,-0.11024 -0.30316,-0.1819 -0.55121,-0.1819 -0.48507,0 -0.82682,0.37483 -0.82682,0.82682 v 0.006 c 0,0.46302 0.34726,0.82682 0.81579,0.82682 z m 0,0"
       id="path24299" />
    <path
       inkscape:connector-curvature="0"
       style="fill:#000000;fill-opacity:1;stroke:none;stroke-width:0.35277775"
       d="m 342.49157,225.03525 c 0.49609,0 0.84335,-0.38035 0.84335,-0.83234 0,-0.452 -0.34175,-0.82682 -0.83784,-0.82682 -0.49058,0 -0.83785,0.37482 -0.83785,0.82682 v 0.005 c 0,0.452 0.34175,0.82682 0.83234,0.82682 z m 0.005,-0.25908 c -0.31971,0 -0.54571,-0.25907 -0.54571,-0.57326 0,-0.31419 0.226,-0.56775 0.54019,-0.56775 0.31971,0 0.54571,0.25907 0.54571,0.56775 v 0.005 c 0,0.31419 -0.22049,0.56775 -0.54019,0.56775 z m 0,0"
       id="path24303" />
    <path
       inkscape:connector-curvature="0"
       style="fill:#000000;fill-opacity:1;stroke:none;stroke-width:0.35277775"
       d="m 343.74646,224.88091 c 0,0.0772 0.0661,0.1378 0.14332,0.1378 0.0772,0 0.13781,-0.0606 0.13781,-0.1378 v -1.01976 l 0.82682,1.06936 c 0.0386,0.0496 0.0772,0.0882 0.14331,0.0882 h 0.011 c 0.0772,0 0.13781,-0.0661 0.13781,-0.14332 v -1.34497 c 0,-0.0772 -0.0606,-0.1378 -0.13781,-0.1378 -0.0772,0 -0.1378,0.0606 -0.1378,0.1378 v 0.98668 l -0.80478,-1.0418 c -0.0386,-0.0496 -0.0772,-0.0827 -0.14331,-0.0827 h -0.0331 c -0.0772,0 -0.14332,0.0661 -0.14332,0.14332 z m 0,0"
       id="path24295" />
    <path
       inkscape:connector-curvature="0"
       style="fill:#000000;fill-opacity:1;stroke:none;stroke-width:0.35277775"
       d="m 346.00897,224.88091 c 0,0.0772 0.0662,0.1378 0.14332,0.1378 0.0772,0 0.14331,-0.0606 0.14331,-0.1378 v -1.21819 h 0.39136 c 0.0717,0 0.12678,-0.0606 0.12678,-0.12678 0,-0.0717 -0.0551,-0.13229 -0.12678,-0.13229 h -1.06936 c -0.0717,0 -0.12677,0.0606 -0.12677,0.13229 0,0.0661 0.0551,0.12678 0.12677,0.12678 h 0.39137 z m 0,0"
       id="path24291" />
  </g>
  <g
     inkscape:groupmode="layer"
     id="layer2"
     inkscape:label="blanking"
     style="display:inline">
    <rect
       style="display:inline;fill:#e6e6e6;fill-opacity:1;stroke-width:0.271713"
       id="rect1111"
       width="38.371868"
       height="8.5010729"
       x="1.2443733"
       y="118.75385" />
    <rect
       style="display:inline;fill:#e6e6e6;fill-opacity:1;stroke-width:0.686901"
       id="rect1107"
       width="37.856167"
       height="50.650383"
       x="1.3955638"
       y="2.455277" />
    <g
       aria-label="CV-MIDI
MTS-ESP"
       id="text2375"
       style="font-size:4.23333px;line-height:1.1;font-family:Montserrat;-inkscape-font-specification:Montserrat;stroke-width:0.264583">
      <path
         d="m 12.918915,7.1769305 c 0.516466,0 0.944033,-0.1862665 1.223433,-0.5291662 L 13.702081,6.2413647 c -0.198966,0.2328331 -0.448733,0.3513663 -0.745066,0.3513663 -0.554566,0 -0.948266,-0.3894663 -0.948266,-0.9482658 0,-0.5587996 0.3937,-0.9482659 0.948266,-0.9482659 0.296333,0 0.5461,0.1185332 0.745066,0.347133 l 0.440267,-0.4063996 c -0.2794,-0.3386664 -0.706967,-0.5249329 -1.219199,-0.5249329 -0.922866,0 -1.608666,0.6392328 -1.608666,1.5324654 0,0.8932325 0.6858,1.5324653 1.604432,1.5324653 z"
         style="font-style:normal;font-variant:normal;font-weight:bold;font-stretch:normal;font-size:4.23333px;font-family:Montserrat;-inkscape-font-specification:'Montserrat Bold';text-align:center;text-anchor:middle;stroke-width:0.264583"
         id="path921" />
      <path
         d="M 16.752261,4.1627997 15.837862,6.2794646 14.936163,4.1627997 H 14.19533 l 1.278466,2.9633309 h 0.677333 l 1.282699,-2.9633309 z"
         style="font-style:normal;font-variant:normal;font-weight:bold;font-stretch:normal;font-size:4.23333px;font-family:Montserrat;-inkscape-font-specification:'Montserrat Bold';text-align:center;text-anchor:middle;stroke-width:0.264583"
         id="path923" />
      <path
         d="M 17.504537,6.1990314 H 18.70257 V 5.6698651 h -1.198033 z"
         style="font-style:normal;font-variant:normal;font-weight:bold;font-stretch:normal;font-size:4.23333px;font-family:Montserrat;-inkscape-font-specification:'Montserrat Bold';text-align:center;text-anchor:middle;stroke-width:0.264583"
         id="path925" />
      <path
         d="m 22.612976,7.1261306 -0.0085,-2.9633309 H 22.041476 L 20.949277,6.0042982 19.840145,4.1627997 h -0.567267 v 2.9633309 h 0.643466 V 5.386232 l 0.867833,1.4266322 h 0.309033 l 0.872066,-1.4647321 0.0042,1.7779985 z"
         style="font-style:normal;font-variant:normal;font-weight:bold;font-stretch:normal;font-size:4.23333px;font-family:Montserrat;-inkscape-font-specification:'Montserrat Bold';text-align:center;text-anchor:middle;stroke-width:0.264583"
         id="path927" />
      <path
         d="m 23.316039,7.1261306 h 0.6858 V 4.1627997 h -0.6858 z"
         style="font-style:normal;font-variant:normal;font-weight:bold;font-stretch:normal;font-size:4.23333px;font-family:Montserrat;-inkscape-font-specification:'Montserrat Bold';text-align:center;text-anchor:middle;stroke-width:0.264583"
         id="path929" />
      <path
         d="m 24.7051,7.1261306 h 1.346199 c 0.969433,0 1.634065,-0.5841995 1.634065,-1.4816654 0,-0.897466 -0.664632,-1.4816655 -1.634065,-1.4816655 H 24.7051 Z M 25.3909,6.5630977 V 4.7258326 h 0.626532 c 0.588433,0 0.973666,0.3513664 0.973666,0.9186326 0,0.5672661 -0.385233,0.9186325 -0.973666,0.9186325 z"
         style="font-style:normal;font-variant:normal;font-weight:bold;font-stretch:normal;font-size:4.23333px;font-family:Montserrat;-inkscape-font-specification:'Montserrat Bold';text-align:center;text-anchor:middle;stroke-width:0.264583"
         id="path931" />
      <path
         d="m 28.202559,7.1261306 h 0.685799 V 4.1627997 h -0.685799 z"
         style="font-style:normal;font-variant:normal;font-weight:bold;font-stretch:normal;font-size:4.23333px;font-family:Montserrat;-inkscape-font-specification:'Montserrat Bold';text-align:center;text-anchor:middle;stroke-width:0.264583"
         id="path933" />
      <path
         d="m 14.047098,11.782793 -0.0085,-2.9633304 H 13.475598 L 12.383399,10.660961 11.274267,8.8194626 H 10.707 v 2.9633304 h 0.643467 v -1.739898 l 0.867832,1.426632 h 0.309033 l 0.872066,-1.464732 0.0042,1.777998 z"
         style="font-style:normal;font-variant:normal;font-weight:bold;font-stretch:normal;font-size:4.23333px;font-family:Montserrat;-inkscape-font-specification:'Montserrat Bold';text-align:center;text-anchor:middle;stroke-width:0.264583"
         id="path935" />
      <path
         d="m 15.363994,11.782793 h 0.685799 V 9.3782621 h 0.948266 V 8.8194626 h -2.582331 v 0.5587995 h 0.948266 z"
         style="font-style:normal;font-variant:normal;font-weight:bold;font-stretch:normal;font-size:4.23333px;font-family:Montserrat;-inkscape-font-specification:'Montserrat Bold';text-align:center;text-anchor:middle;stroke-width:0.264583"
         id="path937" />
      <path
         d="m 18.31178,11.833593 c 0.846666,0 1.257299,-0.423333 1.257299,-0.918632 0,-1.0879659 -1.722965,-0.7112 -1.722965,-1.2572991 0,-0.1862665 0.156633,-0.3386664 0.563033,-0.3386664 0.262466,0 0.546099,0.0762 0.821266,0.2328331 L 19.442079,9.0311291 C 19.166913,8.8575626 18.785913,8.7686626 18.41338,8.7686626 c -0.842432,0 -1.248832,0.4190997 -1.248832,0.9228659 0,1.1006655 1.722965,0.7196665 1.722965,1.2742325 0,0.182033 -0.1651,0.3175 -0.571499,0.3175 -0.3556,0 -0.728133,-0.127 -0.9779,-0.309034 l -0.232833,0.516467 c 0.262467,0.2032 0.7366,0.342899 1.206499,0.342899 z"
         style="font-style:normal;font-variant:normal;font-weight:bold;font-stretch:normal;font-size:4.23333px;font-family:Montserrat;-inkscape-font-specification:'Montserrat Bold';text-align:center;text-anchor:middle;stroke-width:0.264583"
         id="path939" />
      <path
         d="M 19.968467,10.855694 H 21.1665 v -0.529166 h -1.198033 z"
         style="font-style:normal;font-variant:normal;font-weight:bold;font-stretch:normal;font-size:4.23333px;font-family:Montserrat;-inkscape-font-specification:'Montserrat Bold';text-align:center;text-anchor:middle;stroke-width:0.264583"
         id="path941" />
      <path
         d="m 22.418375,11.232461 v -0.6858 h 1.375832 V 10.013262 H 22.418375 V 9.3697955 H 23.97624 V 8.8194626 h -2.239432 v 2.9633304 h 2.294465 v -0.550332 z"
         style="font-style:normal;font-variant:normal;font-weight:bold;font-stretch:normal;font-size:4.23333px;font-family:Montserrat;-inkscape-font-specification:'Montserrat Bold';text-align:center;text-anchor:middle;stroke-width:0.264583"
         id="path943" />
      <path
         d="m 25.554743,11.833593 c 0.846666,0 1.257299,-0.423333 1.257299,-0.918632 0,-1.0879659 -1.722965,-0.7112 -1.722965,-1.2572991 0,-0.1862665 0.156633,-0.3386664 0.563033,-0.3386664 0.262466,0 0.546099,0.0762 0.821266,0.2328331 L 26.685042,9.0311291 C 26.409876,8.8575626 26.028876,8.7686626 25.656343,8.7686626 c -0.842433,0 -1.248832,0.4190997 -1.248832,0.9228659 0,1.1006655 1.722965,0.7196665 1.722965,1.2742325 0,0.182033 -0.1651,0.3175 -0.5715,0.3175 -0.355599,0 -0.728132,-0.127 -0.977899,-0.309034 l -0.232833,0.516467 c 0.262467,0.2032 0.7366,0.342899 1.206499,0.342899 z"
         style="font-style:normal;font-variant:normal;font-weight:bold;font-stretch:normal;font-size:4.23333px;font-family:Montserrat;-inkscape-font-specification:'Montserrat Bold';text-align:center;text-anchor:middle;stroke-width:0.264583"
         id="path945" />
      <path
         d="m 28.567485,8.8194626 h -1.282699 v 2.9633304 h 0.685799 v -0.817032 h 0.5969 c 0.791633,0 1.286932,-0.410633 1.286932,-1.0710326 0,-0.6646328 -0.495299,-1.0752658 -1.286932,-1.0752658 z m -0.0381,1.5874984 h -0.5588 V 9.3782621 h 0.5588 c 0.4191,0 0.630766,0.1904999 0.630766,0.5164663 0,0.3217326 -0.211666,0.5122326 -0.630766,0.5122326 z"
         style="font-style:normal;font-variant:normal;font-weight:bold;font-stretch:normal;font-size:4.23333px;font-family:Montserrat;-inkscape-font-specification:'Montserrat Bold';text-align:center;text-anchor:middle;stroke-width:0.264583"
         id="path947" />
    </g>
  </g>
  <g
     inkscape:groupmode="layer"
     id="layer3"
     inkscape:label="ODDSound">
    <g
       aria-label="ODDSOUND"
       id="text1119"
       style="font-style:normal;font-weight:normal;font-size:4.23333px;line-height:1.25;font-family:sans-serif;display:inline;mix-blend-mode:normal;fill:#000000;fill-opacity:1;stroke:none;stroke-width:0.264583"
       transform="translate(-7.89e-5,-1.51142)">
      <path
         d="m 8.8964442,124.46835 c 0.9313326,0 1.6213658,-0.6477 1.6213658,-1.53247 0,-0.88476 -0.6900332,-1.53246 -1.6213658,-1.53246 -0.9355658,0 -1.6213653,0.65193 -1.6213653,1.53246 0,0.88054 0.6857995,1.53247 1.6213653,1.53247 z m 0,-0.5842 c -0.5291662,0 -0.9270992,-0.38523 -0.9270992,-0.94827 0,-0.56303 0.397933,-0.94826 0.9270992,-0.94826 0.5291663,0 0.9270993,0.38523 0.9270993,0.94826 0,0.56304 -0.397933,0.94827 -0.9270993,0.94827 z"
         style="font-style:normal;font-variant:normal;font-weight:bold;font-stretch:normal;font-size:4.23333px;font-family:Montserrat;-inkscape-font-specification:'Montserrat, Bold';font-variant-ligatures:normal;font-variant-caps:normal;font-variant-numeric:normal;font-variant-east-asian:normal;fill:#be8f57;fill-opacity:1"
         id="path1143" />
      <path
         d="m 11.033217,124.41755 h 1.346199 c 0.969433,0 1.634066,-0.5842 1.634066,-1.48167 0,-0.89746 -0.664633,-1.48166 -1.634066,-1.48166 h -1.346199 z m 0.6858,-0.56303 v -1.83727 h 0.626533 c 0.588433,0 0.973666,0.35137 0.973666,0.91863 0,0.56727 -0.385233,0.91864 -0.973666,0.91864 z"
         style="font-style:normal;font-variant:normal;font-weight:bold;font-stretch:normal;font-size:4.23333px;font-family:Montserrat;-inkscape-font-specification:'Montserrat, Bold';font-variant-ligatures:normal;font-variant-caps:normal;font-variant-numeric:normal;font-variant-east-asian:normal;fill:#be8f57;fill-opacity:1"
         id="path1145" />
      <path
         d="m 14.530676,124.41755 h 1.346199 c 0.969432,0 1.634065,-0.5842 1.634065,-1.48167 0,-0.89746 -0.664633,-1.48166 -1.634065,-1.48166 h -1.346199 z m 0.685799,-0.56303 v -1.83727 h 0.626533 c 0.588433,0 0.973666,0.35137 0.973666,0.91863 0,0.56727 -0.385233,0.91864 -0.973666,0.91864 z"
         style="font-style:normal;font-variant:normal;font-weight:bold;font-stretch:normal;font-size:4.23333px;font-family:Montserrat;-inkscape-font-specification:'Montserrat, Bold';font-variant-ligatures:normal;font-variant-caps:normal;font-variant-numeric:normal;font-variant-east-asian:normal;fill:#be8f57;fill-opacity:1"
         id="path1147" />
      <path
         d="m 19.001799,124.46835 c 0.846666,0 1.257299,-0.42333 1.257299,-0.91863 0,-1.08797 -1.722965,-0.7112 -1.722965,-1.2573 0,-0.18627 0.156633,-0.33867 0.563033,-0.33867 0.262466,0 0.546099,0.0762 0.821266,0.23283 l 0.211666,-0.5207 c -0.275166,-0.17356 -0.656166,-0.26246 -1.028699,-0.26246 -0.842433,0 -1.248832,0.4191 -1.248832,0.92286 0,1.10067 1.722965,0.71967 1.722965,1.27424 0,0.18203 -0.1651,0.3175 -0.5715,0.3175 -0.355599,0 -0.728132,-0.127 -0.977899,-0.30904 l -0.232833,0.51647 c 0.262466,0.2032 0.736599,0.3429 1.206499,0.3429 z"
         style="font-style:normal;font-variant:normal;font-weight:bold;font-stretch:normal;font-size:4.23333px;font-family:Montserrat;-inkscape-font-specification:'Montserrat, Bold';font-variant-ligatures:normal;font-variant-caps:normal;font-variant-numeric:normal;font-variant-east-asian:normal;fill:#4ca0df;fill-opacity:1"
         id="path1149" />
      <path
         d="m 22.166941,124.46835 c 0.931332,0 1.621365,-0.6477 1.621365,-1.53247 0,-0.88476 -0.690033,-1.53246 -1.621365,-1.53246 -0.935566,0 -1.621366,0.65193 -1.621366,1.53246 0,0.88054 0.6858,1.53247 1.621366,1.53247 z m 0,-0.5842 c -0.529167,0 -0.9271,-0.38523 -0.9271,-0.94827 0,-0.56303 0.397933,-0.94826 0.9271,-0.94826 0.529166,0 0.927099,0.38523 0.927099,0.94826 0,0.56304 -0.397933,0.94827 -0.927099,0.94827 z"
         style="font-style:normal;font-variant:normal;font-weight:bold;font-stretch:normal;font-size:4.23333px;font-family:Montserrat;-inkscape-font-specification:'Montserrat, Bold';font-variant-ligatures:normal;font-variant-caps:normal;font-variant-numeric:normal;font-variant-east-asian:normal;fill:#4ca0df;fill-opacity:1"
         id="path1151" />
      <path
         d="m 25.62028,124.46835 c 0.842433,0 1.341966,-0.4826 1.341966,-1.35467 v -1.65946 h -0.677333 v 1.63406 c 0,0.56304 -0.2413,0.79587 -0.6604,0.79587 -0.414866,0 -0.660399,-0.23283 -0.660399,-0.79587 v -1.63406 h -0.685799 v 1.65946 c 0,0.87207 0.499532,1.35467 1.341965,1.35467 z"
         style="font-style:normal;font-variant:normal;font-weight:bold;font-stretch:normal;font-size:4.23333px;font-family:Montserrat;-inkscape-font-specification:'Montserrat, Bold';font-variant-ligatures:normal;font-variant-caps:normal;font-variant-numeric:normal;font-variant-east-asian:normal;fill:#4ca0df;fill-opacity:1"
         id="path1153" />
      <path
         d="m 29.676272,121.45422 v 1.79916 l -1.473199,-1.79916 h -0.567266 v 2.96333 h 0.677333 v -1.79917 l 1.477432,1.79917 h 0.563033 v -2.96333 z"
         style="font-style:normal;font-variant:normal;font-weight:bold;font-stretch:normal;font-size:4.23333px;font-family:Montserrat;-inkscape-font-specification:'Montserrat, Bold';font-variant-ligatures:normal;font-variant-caps:normal;font-variant-numeric:normal;font-variant-east-asian:normal;fill:#4ca0df;fill-opacity:1"
         id="path1155" />
      <path
         d="m 31.058851,124.41755 h 1.346199 c 0.969432,0 1.634065,-0.5842 1.634065,-1.48167 0,-0.89746 -0.664633,-1.48166 -1.634065,-1.48166 h -1.346199 z m 0.685799,-0.56303 v -1.83727 h 0.626533 c 0.588433,0 0.973666,0.35137 0.973666,0.91863 0,0.56727 -0.385233,0.91864 -0.973666,0.91864 z"
         style="font-style:normal;font-variant:normal;font-weight:bold;font-stretch:normal;font-size:4.23333px;font-family:Montserrat;-inkscape-font-specification:'Montserrat, Bold';font-variant-ligatures:normal;font-variant-caps:normal;font-variant-numeric:normal;font-variant-east-asian:normal;fill:#4ca0df;fill-opacity:1"
         id="path1157" />
    </g>
    <g
       aria-label="TO DEVICE"
       id="text2371"
       style="font-size:3.175px;line-height:1.25;font-family:Montserrat;-inkscape-font-specification:Montserrat;stroke-width:0.264583">
      <path
         d="m 12.076989,51.70715 h 0.41275 V 49.8339 h 0.7366 v -0.34925 h -1.88595 v 0.34925 h 0.7366 z"
         style="font-style:normal;font-variant:normal;font-weight:600;font-stretch:normal;font-size:3.175px;font-family:Montserrat;-inkscape-font-specification:'Montserrat Semi-Bold';text-align:center;text-anchor:middle;stroke-width:0.264583"
         id="path950" />
      <path
         d="m 14.543319,51.7389 c 0.688975,0 1.196975,-0.4826 1.196975,-1.143 0,-0.6604 -0.508,-1.143 -1.196975,-1.143 -0.688975,0 -1.196974,0.485775 -1.196974,1.143 0,0.657225 0.507999,1.143 1.196974,1.143 z m 0,-0.36195 c -0.447675,0 -0.78105,-0.327025 -0.78105,-0.78105 0,-0.454025 0.333375,-0.78105 0.78105,-0.78105 0.447675,0 0.78105,0.327025 0.78105,0.78105 0,0.454025 -0.333375,0.78105 -0.78105,0.78105 z"
         style="font-style:normal;font-variant:normal;font-weight:600;font-stretch:normal;font-size:3.175px;font-family:Montserrat;-inkscape-font-specification:'Montserrat Semi-Bold';text-align:center;text-anchor:middle;stroke-width:0.264583"
         id="path952" />
      <path
         d="m 17.052165,51.70715 h 0.97155 c 0.720725,0 1.21285,-0.4445 1.21285,-1.11125 0,-0.66675 -0.492125,-1.11125 -1.21285,-1.11125 h -0.97155 z m 0.41275,-0.34925 v -1.524 h 0.53975 c 0.4953,0 0.815975,0.301625 0.815975,0.762 0,0.460375 -0.320675,0.762 -0.815975,0.762 z"
         style="font-style:normal;font-variant:normal;font-weight:600;font-stretch:normal;font-size:3.175px;font-family:Montserrat;-inkscape-font-specification:'Montserrat Semi-Bold';text-align:center;text-anchor:middle;stroke-width:0.264583"
         id="path954" />
      <path
         d="M 20.08801,51.361075 V 50.7483 h 1.07315 v -0.339725 h -1.07315 v -0.57785 h 1.209675 V 49.48465 H 19.67526 v 2.2225 h 1.666875 v -0.346075 z"
         style="font-style:normal;font-variant:normal;font-weight:600;font-stretch:normal;font-size:3.175px;font-family:Montserrat;-inkscape-font-specification:'Montserrat Semi-Bold';text-align:center;text-anchor:middle;stroke-width:0.264583"
         id="path956" />
      <path
         d="m 23.390506,49.48465 -0.746125,1.7145 -0.739775,-1.7145 h -0.447675 l 0.97155,2.2225 h 0.4064 l 0.968375,-2.2225 z"
         style="font-style:normal;font-variant:normal;font-weight:600;font-stretch:normal;font-size:3.175px;font-family:Montserrat;-inkscape-font-specification:'Montserrat Semi-Bold';text-align:center;text-anchor:middle;stroke-width:0.264583"
         id="path958" />
      <path
         d="m 24.034684,51.70715 h 0.41275 v -2.2225 h -0.41275 z"
         style="font-style:normal;font-variant:normal;font-weight:600;font-stretch:normal;font-size:3.175px;font-family:Montserrat;-inkscape-font-specification:'Montserrat Semi-Bold';text-align:center;text-anchor:middle;stroke-width:0.264583"
         id="path960" />
      <path
         d="m 26.074175,51.7389 c 0.365125,0 0.676275,-0.130175 0.88265,-0.371475 l -0.2667,-0.254 c -0.161925,0.1778 -0.36195,0.263525 -0.593725,0.263525 -0.460375,0 -0.79375,-0.32385 -0.79375,-0.78105 0,-0.4572 0.333375,-0.78105 0.79375,-0.78105 0.231775,0 0.4318,0.08573 0.593725,0.26035 l 0.2667,-0.250825 C 26.75045,49.583075 26.4393,49.4529 26.07735,49.4529 c -0.682625,0 -1.190625,0.479425 -1.190625,1.143 0,0.663575 0.508,1.143 1.18745,1.143 z"
         style="font-style:normal;font-variant:normal;font-weight:600;font-stretch:normal;font-size:3.175px;font-family:Montserrat;-inkscape-font-specification:'Montserrat Semi-Bold';text-align:center;text-anchor:middle;stroke-width:0.264583"
         id="path962" />
      <path
         d="M 27.765061,51.361075 V 50.7483 h 1.07315 v -0.339725 h -1.07315 v -0.57785 h 1.209675 V 49.48465 h -1.622425 v 2.2225 h 1.666875 v -0.346075 z"
         style="font-style:normal;font-variant:normal;font-weight:600;font-stretch:normal;font-size:3.175px;font-family:Montserrat;-inkscape-font-specification:'Montserrat Semi-Bold';text-align:center;text-anchor:middle;stroke-width:0.264583"
         id="path964" />
    </g>
  </g>
</svg>
